<?xml version="1.0" encoding="UTF-8"?>
<svg xmlns="http://www.w3.org/2000/svg" xmlns:xlink="http://www.w3.org/1999/xlink" stroke-dasharray="none" shape-rendering="auto" font-family="'Dialog'" width="1038" text-rendering="auto" fill-opacity="1" contentScriptType="text/ecmascript" color-interpolation="auto" color-rendering="auto" preserveAspectRatio="xMidYMid meet" font-size="12" viewBox="0 0 1038 1271" fill="black" stroke="black" image-rendering="auto" stroke-miterlimit="10" zoomAndPan="magnify" version="1.0" stroke-linecap="square" stroke-linejoin="miter" contentStyleType="text/css" font-style="normal" height="1271" stroke-width="1" stroke-dashoffset="0" font-weight="normal" stroke-opacity="1">
  <!--Generated by the Batik Graphics2D SVG Generator-->
  <defs id="genericDefs" />
  <g>
    <defs id="defs1">
      <clipPath clipPathUnits="userSpaceOnUse" id="clipPath1">
        <path d="M62 9 L134 9 L134 41 L62 41 L62 9 Z" />
      </clipPath>
      <clipPath clipPathUnits="userSpaceOnUse" id="clipPath2">
        <path d="M62 9 L137 9 L137 41 L62 41 L62 9 Z" />
      </clipPath>
      <clipPath clipPathUnits="userSpaceOnUse" id="clipPath3">
        <path d="M92 39 L104 39 L104 1262 L92 1262 L92 39 Z" />
      </clipPath>
      <clipPath clipPathUnits="userSpaceOnUse" id="clipPath4">
        <path d="M221 9 L339 9 L339 61 L221 61 L221 9 Z" />
      </clipPath>
      <clipPath clipPathUnits="userSpaceOnUse" id="clipPath5">
        <path d="M221 9 L341 9 L341 61 L221 61 L221 9 Z" />
      </clipPath>
      <clipPath clipPathUnits="userSpaceOnUse" id="clipPath6">
        <path d="M274 59 L286 59 L286 1262 L274 1262 L274 59 Z" />
      </clipPath>
      <clipPath clipPathUnits="userSpaceOnUse" id="clipPath7">
        <path d="M269 89 L291 89 L291 131 L269 131 L269 89 Z" />
      </clipPath>
      <clipPath clipPathUnits="userSpaceOnUse" id="clipPath8">
        <path d="M290 89 L327 89 L327 106 L290 106 L290 89 Z" />
      </clipPath>
      <clipPath clipPathUnits="userSpaceOnUse" id="clipPath9">
        <path d="M347 9 L448 9 L448 61 L347 61 L347 9 Z" />
      </clipPath>
      <clipPath clipPathUnits="userSpaceOnUse" id="clipPath10">
        <path d="M347 9 L450 9 L450 61 L347 61 L347 9 Z" />
      </clipPath>
      <clipPath clipPathUnits="userSpaceOnUse" id="clipPath11">
        <path d="M391 59 L403 59 L403 1262 L391 1262 L391 59 Z" />
      </clipPath>
      <clipPath clipPathUnits="userSpaceOnUse" id="clipPath12">
        <path d="M386 149 L408 149 L408 191 L386 191 L386 149 Z" />
      </clipPath>
      <clipPath clipPathUnits="userSpaceOnUse" id="clipPath13">
        <path d="M407 149 L444 149 L444 166 L407 166 L407 149 Z" />
      </clipPath>
      <clipPath clipPathUnits="userSpaceOnUse" id="clipPath14">
        <path d="M386 664 L408 664 L408 706 L386 706 L386 664 Z" />
      </clipPath>
      <clipPath clipPathUnits="userSpaceOnUse" id="clipPath15">
        <path d="M407 664 L444 664 L444 681 L407 681 L407 664 Z" />
      </clipPath>
      <clipPath clipPathUnits="userSpaceOnUse" id="clipPath16">
        <path d="M386 990 L408 990 L408 1032 L386 1032 L386 990 Z" />
      </clipPath>
      <clipPath clipPathUnits="userSpaceOnUse" id="clipPath17">
        <path d="M407 990 L444 990 L444 1007 L407 1007 L407 990 Z" />
      </clipPath>
      <clipPath clipPathUnits="userSpaceOnUse" id="clipPath18">
        <path d="M386 1035 L408 1035 L408 1077 L386 1077 L386 1035 Z" />
      </clipPath>
      <clipPath clipPathUnits="userSpaceOnUse" id="clipPath19">
        <path d="M407 1035 L444 1035 L444 1052 L407 1052 L407 1035 Z" />
      </clipPath>
      <clipPath clipPathUnits="userSpaceOnUse" id="clipPath20">
        <path d="M456 9 L587 9 L587 61 L456 61 L456 9 Z" />
      </clipPath>
      <clipPath clipPathUnits="userSpaceOnUse" id="clipPath21">
        <path d="M456 9 L589 9 L589 61 L456 61 L456 9 Z" />
      </clipPath>
      <clipPath clipPathUnits="userSpaceOnUse" id="clipPath22">
        <path d="M515 59 L527 59 L527 1262 L515 1262 L515 59 Z" />
      </clipPath>
      <clipPath clipPathUnits="userSpaceOnUse" id="clipPath23">
        <path d="M510 209 L532 209 L532 251 L510 251 L510 209 Z" />
      </clipPath>
      <clipPath clipPathUnits="userSpaceOnUse" id="clipPath24">
        <path d="M531 209 L568 209 L568 226 L531 226 L531 209 Z" />
      </clipPath>
      <clipPath clipPathUnits="userSpaceOnUse" id="clipPath25">
        <path d="M510 329 L532 329 L532 371 L510 371 L510 329 Z" />
      </clipPath>
      <clipPath clipPathUnits="userSpaceOnUse" id="clipPath26">
        <path d="M531 329 L568 329 L568 346 L531 346 L531 329 Z" />
      </clipPath>
      <clipPath clipPathUnits="userSpaceOnUse" id="clipPath27">
        <path d="M510 449 L532 449 L532 491 L510 491 L510 449 Z" />
      </clipPath>
      <clipPath clipPathUnits="userSpaceOnUse" id="clipPath28">
        <path d="M531 449 L568 449 L568 466 L531 466 L531 449 Z" />
      </clipPath>
      <clipPath clipPathUnits="userSpaceOnUse" id="clipPath29">
        <path d="M510 258 L532 258 L532 300 L510 300 L510 258 Z" />
      </clipPath>
      <clipPath clipPathUnits="userSpaceOnUse" id="clipPath30">
        <path d="M531 258 L560 258 L560 275 L531 275 L531 258 Z" />
      </clipPath>
      <clipPath clipPathUnits="userSpaceOnUse" id="clipPath31">
        <path d="M510 381 L532 381 L532 423 L510 423 L510 381 Z" />
      </clipPath>
      <clipPath clipPathUnits="userSpaceOnUse" id="clipPath32">
        <path d="M531 381 L560 381 L560 398 L531 398 L531 381 Z" />
      </clipPath>
      <clipPath clipPathUnits="userSpaceOnUse" id="clipPath33">
        <path d="M510 499 L532 499 L532 541 L510 541 L510 499 Z" />
      </clipPath>
      <clipPath clipPathUnits="userSpaceOnUse" id="clipPath34">
        <path d="M531 499 L560 499 L560 516 L531 516 L531 499 Z" />
      </clipPath>
      <clipPath clipPathUnits="userSpaceOnUse" id="clipPath35">
        <path d="M510 569 L532 569 L532 611 L510 611 L510 569 Z" />
      </clipPath>
      <clipPath clipPathUnits="userSpaceOnUse" id="clipPath36">
        <path d="M531 569 L568 569 L568 586 L531 586 L531 569 Z" />
      </clipPath>
      <clipPath clipPathUnits="userSpaceOnUse" id="clipPath37">
        <path d="M510 614 L532 614 L532 656 L510 656 L510 614 Z" />
      </clipPath>
      <clipPath clipPathUnits="userSpaceOnUse" id="clipPath38">
        <path d="M531 614 L560 614 L560 631 L531 631 L531 614 Z" />
      </clipPath>
      <clipPath clipPathUnits="userSpaceOnUse" id="clipPath39">
        <path d="M510 1080 L532 1080 L532 1122 L510 1122 L510 1080 Z" />
      </clipPath>
      <clipPath clipPathUnits="userSpaceOnUse" id="clipPath40">
        <path d="M531 1080 L560 1080 L560 1097 L531 1097 L531 1080 Z" />
      </clipPath>
      <clipPath clipPathUnits="userSpaceOnUse" id="clipPath41">
        <path d="M595 9 L731 9 L731 61 L595 61 L595 9 Z" />
      </clipPath>
      <clipPath clipPathUnits="userSpaceOnUse" id="clipPath42">
        <path d="M595 9 L734 9 L734 61 L595 61 L595 9 Z" />
      </clipPath>
      <clipPath clipPathUnits="userSpaceOnUse" id="clipPath43">
        <path d="M657 59 L669 59 L669 1262 L657 1262 L657 59 Z" />
      </clipPath>
      <clipPath clipPathUnits="userSpaceOnUse" id="clipPath44">
        <path d="M652 789 L674 789 L674 831 L652 831 L652 789 Z" />
      </clipPath>
      <clipPath clipPathUnits="userSpaceOnUse" id="clipPath45">
        <path d="M673 789 L710 789 L710 806 L673 806 L673 789 Z" />
      </clipPath>
      <clipPath clipPathUnits="userSpaceOnUse" id="clipPath46">
        <path d="M652 879 L674 879 L674 921 L652 921 L652 879 Z" />
      </clipPath>
      <clipPath clipPathUnits="userSpaceOnUse" id="clipPath47">
        <path d="M673 879 L710 879 L710 896 L673 896 L673 879 Z" />
      </clipPath>
      <clipPath clipPathUnits="userSpaceOnUse" id="clipPath48">
        <path d="M652 834 L674 834 L674 876 L652 876 L652 834 Z" />
      </clipPath>
      <clipPath clipPathUnits="userSpaceOnUse" id="clipPath49">
        <path d="M673 834 L702 834 L702 851 L673 851 L673 834 Z" />
      </clipPath>
      <clipPath clipPathUnits="userSpaceOnUse" id="clipPath50">
        <path d="M652 945 L674 945 L674 987 L652 987 L652 945 Z" />
      </clipPath>
      <clipPath clipPathUnits="userSpaceOnUse" id="clipPath51">
        <path d="M673 945 L702 945 L702 962 L673 962 L673 945 Z" />
      </clipPath>
      <clipPath clipPathUnits="userSpaceOnUse" id="clipPath52">
        <path d="M739 9 L869 9 L869 61 L739 61 L739 9 Z" />
      </clipPath>
      <clipPath clipPathUnits="userSpaceOnUse" id="clipPath53">
        <path d="M739 9 L871 9 L871 61 L739 61 L739 9 Z" />
      </clipPath>
      <clipPath clipPathUnits="userSpaceOnUse" id="clipPath54">
        <path d="M798 59 L810 59 L810 1262 L798 1262 L798 59 Z" />
      </clipPath>
      <clipPath clipPathUnits="userSpaceOnUse" id="clipPath55">
        <path d="M793 1125 L815 1125 L815 1167 L793 1167 L793 1125 Z" />
      </clipPath>
      <clipPath clipPathUnits="userSpaceOnUse" id="clipPath56">
        <path d="M814 1125 L843 1125 L843 1142 L814 1142 L814 1125 Z" />
      </clipPath>
      <clipPath clipPathUnits="userSpaceOnUse" id="clipPath57">
        <path d="M877 9 L1029 9 L1029 61 L877 61 L877 9 Z" />
      </clipPath>
      <clipPath clipPathUnits="userSpaceOnUse" id="clipPath58">
        <path d="M877 9 L1031 9 L1031 61 L877 61 L877 9 Z" />
      </clipPath>
      <clipPath clipPathUnits="userSpaceOnUse" id="clipPath59">
        <path d="M947 59 L959 59 L959 1262 L947 1262 L947 59 Z" />
      </clipPath>
      <clipPath clipPathUnits="userSpaceOnUse" id="clipPath60">
        <path d="M942 1170 L964 1170 L964 1212 L942 1212 L942 1170 Z" />
      </clipPath>
      <clipPath clipPathUnits="userSpaceOnUse" id="clipPath61">
        <path d="M963 1170 L992 1170 L992 1187 L963 1187 L963 1170 Z" />
      </clipPath>
      <clipPath clipPathUnits="userSpaceOnUse" id="clipPath62">
        <path d="M-1 -1 L1039 -1 L1039 1272 L-1 1272 L-1 -1 Z" />
      </clipPath>
      <clipPath clipPathUnits="userSpaceOnUse" id="clipPath63">
        <path d="M130 68 L336 68 L336 85 L130 85 L130 68 Z" />
      </clipPath>
      <clipPath clipPathUnits="userSpaceOnUse" id="clipPath64">
        <path d="M96 85 L108 85 L108 96 L96 96 L96 85 Z" />
      </clipPath>
      <clipPath clipPathUnits="userSpaceOnUse" id="clipPath65">
        <path d="M132 129 L333 129 L333 146 L132 146 L132 129 Z" />
      </clipPath>
      <clipPath clipPathUnits="userSpaceOnUse" id="clipPath66">
        <path d="M96 145 L108 145 L108 156 L96 156 L96 145 Z" />
      </clipPath>
      <clipPath clipPathUnits="userSpaceOnUse" id="clipPath67">
        <path d="M125 186 L325 186 L325 203 L125 203 L125 186 Z" />
      </clipPath>
      <clipPath clipPathUnits="userSpaceOnUse" id="clipPath68">
        <path d="M96 205 L108 205 L108 216 L96 216 L96 205 Z" />
      </clipPath>
      <clipPath clipPathUnits="userSpaceOnUse" id="clipPath69">
        <path d="M145 305 L458 305 L458 322 L145 322 L145 305 Z" />
      </clipPath>
      <clipPath clipPathUnits="userSpaceOnUse" id="clipPath70">
        <path d="M96 325 L108 325 L108 336 L96 336 L96 325 Z" />
      </clipPath>
      <clipPath clipPathUnits="userSpaceOnUse" id="clipPath71">
        <path d="M34 426 L249 426 L249 443 L34 443 L34 426 Z" />
      </clipPath>
      <clipPath clipPathUnits="userSpaceOnUse" id="clipPath72">
        <path d="M96 445 L108 445 L108 456 L96 456 L96 445 Z" />
      </clipPath>
      <clipPath clipPathUnits="userSpaceOnUse" id="clipPath73">
        <path d="M135 236 L352 236 L352 253 L135 253 L135 236 Z" />
      </clipPath>
      <clipPath clipPathUnits="userSpaceOnUse" id="clipPath74">
        <path d="M502 254 L514 254 L514 265 L502 265 L502 254 Z" />
      </clipPath>
      <clipPath clipPathUnits="userSpaceOnUse" id="clipPath75">
        <path d="M125 360 L294 360 L294 377 L125 377 L125 360 Z" />
      </clipPath>
      <clipPath clipPathUnits="userSpaceOnUse" id="clipPath76">
        <path d="M502 377 L514 377 L514 388 L502 388 L502 377 Z" />
      </clipPath>
      <clipPath clipPathUnits="userSpaceOnUse" id="clipPath77">
        <path d="M190 478 L324 478 L324 495 L190 495 L190 478 Z" />
      </clipPath>
      <clipPath clipPathUnits="userSpaceOnUse" id="clipPath78">
        <path d="M502 495 L514 495 L514 506 L502 506 L502 495 Z" />
      </clipPath>
      <clipPath clipPathUnits="userSpaceOnUse" id="clipPath79">
        <path d="M274 551 L337 551 L337 568 L274 568 L274 551 Z" />
      </clipPath>
      <clipPath clipPathUnits="userSpaceOnUse" id="clipPath80">
        <path d="M96 564 L108 564 L108 575 L96 575 L96 564 Z" />
      </clipPath>
      <clipPath clipPathUnits="userSpaceOnUse" id="clipPath81">
        <path d="M143 646 L344 646 L344 663 L143 663 L143 646 Z" />
      </clipPath>
      <clipPath clipPathUnits="userSpaceOnUse" id="clipPath82">
        <path d="M96 659 L108 659 L108 670 L96 670 L96 659 Z" />
      </clipPath>
      <clipPath clipPathUnits="userSpaceOnUse" id="clipPath83">
        <path d="M57 771 L696 771 L696 788 L57 788 L57 771 Z" />
      </clipPath>
      <clipPath clipPathUnits="userSpaceOnUse" id="clipPath84">
        <path d="M96 784 L108 784 L108 795 L96 795 L96 784 Z" />
      </clipPath>
      <clipPath clipPathUnits="userSpaceOnUse" id="clipPath85">
        <path d="M23 861 L729 861 L729 878 L23 878 L23 861 Z" />
      </clipPath>
      <clipPath clipPathUnits="userSpaceOnUse" id="clipPath86">
        <path d="M96 874 L108 874 L108 885 L96 885 L96 874 Z" />
      </clipPath>
      <clipPath clipPathUnits="userSpaceOnUse" id="clipPath87">
        <path d="M143 972 L344 972 L344 989 L143 989 L143 972 Z" />
      </clipPath>
      <clipPath clipPathUnits="userSpaceOnUse" id="clipPath88">
        <path d="M96 985 L108 985 L108 996 L96 996 L96 985 Z" />
      </clipPath>
      <clipPath clipPathUnits="userSpaceOnUse" id="clipPath89">
        <path d="M166 1017 L321 1017 L321 1034 L166 1034 L166 1017 Z" />
      </clipPath>
      <clipPath clipPathUnits="userSpaceOnUse" id="clipPath90">
        <path d="M96 1030 L108 1030 L108 1041 L96 1041 L96 1030 Z" />
      </clipPath>
      <clipPath clipPathUnits="userSpaceOnUse" id="clipPath91">
        <path d="M185 596 L425 596 L425 613 L185 613 L185 596 Z" />
      </clipPath>
      <clipPath clipPathUnits="userSpaceOnUse" id="clipPath92">
        <path d="M502 609 L514 609 L514 620 L502 620 L502 609 Z" />
      </clipPath>
      <clipPath clipPathUnits="userSpaceOnUse" id="clipPath93">
        <path d="M100 816 L652 816 L652 833 L100 833 L100 816 Z" />
      </clipPath>
      <clipPath clipPathUnits="userSpaceOnUse" id="clipPath94">
        <path d="M644 829 L656 829 L656 840 L644 840 L644 829 Z" />
      </clipPath>
      <clipPath clipPathUnits="userSpaceOnUse" id="clipPath95">
        <path d="M100 927 L652 927 L652 944 L100 944 L100 927 Z" />
      </clipPath>
      <clipPath clipPathUnits="userSpaceOnUse" id="clipPath96">
        <path d="M644 940 L656 940 L656 951 L644 951 L644 940 Z" />
      </clipPath>
      <clipPath clipPathUnits="userSpaceOnUse" id="clipPath97">
        <path d="M72 1062 L538 1062 L538 1079 L72 1079 L72 1062 Z" />
      </clipPath>
      <clipPath clipPathUnits="userSpaceOnUse" id="clipPath98">
        <path d="M502 1075 L514 1075 L514 1086 L502 1086 L502 1075 Z" />
      </clipPath>
      <clipPath clipPathUnits="userSpaceOnUse" id="clipPath99">
        <path d="M214 1107 L680 1107 L680 1124 L214 1124 L214 1107 Z" />
      </clipPath>
      <clipPath clipPathUnits="userSpaceOnUse" id="clipPath100">
        <path d="M785 1120 L797 1120 L797 1131 L785 1131 L785 1120 Z" />
      </clipPath>
      <clipPath clipPathUnits="userSpaceOnUse" id="clipPath101">
        <path d="M288 1152 L754 1152 L754 1169 L288 1169 L288 1152 Z" />
      </clipPath>
      <clipPath clipPathUnits="userSpaceOnUse" id="clipPath102">
        <path d="M934 1165 L946 1165 L946 1176 L934 1176 L934 1165 Z" />
      </clipPath>
    </defs>
    <g font-size="19" fill="rgb(238,201,142)" font-family="'Lucida Sans'" stroke-linejoin="round" stroke="rgb(238,201,142)" stroke-width="0" stroke-miterlimit="0">
      <rect x="63" y="10" clip-path="url(#clipPath1)" width="70" height="30" stroke="none" />
    </g>
    <g stroke-width="0.1" font-size="19" font-family="'Lucida Sans'" stroke-linecap="butt">
      <rect x="63" y="10" clip-path="url(#clipPath1)" fill="none" width="69" height="29" />
      <text x="78" font-size="11" y="30" clip-path="url(#clipPath2)" font-family="'Lucida Sans Unicode'" stroke="none" xml:space="preserve">System</text>
      <line clip-path="url(#clipPath3)" fill="none" x1="97" x2="97" y1="40" y2="1261" stroke-dasharray="10,10" stroke-width="1.1" />
    </g>
    <g stroke-linecap="butt" font-size="19" fill="rgb(255,245,181)" font-family="'Lucida Sans'" stroke-dasharray="10,10" stroke="rgb(255,245,181)" stroke-width="1.1">
      <rect x="222" y="10" clip-path="url(#clipPath4)" width="116" height="50" stroke="none" />
    </g>
    <g stroke-width="0.1" font-size="19" font-family="'Lucida Sans'" stroke-linecap="butt">
      <rect x="222" y="10" clip-path="url(#clipPath4)" fill="none" width="115" height="49" />
      <text x="250" font-size="11" y="33" clip-path="url(#clipPath5)" font-family="'Lucida Sans Unicode'" stroke="none" xml:space="preserve">theCreator</text>
      <text x="238" font-size="11" y="48" clip-path="url(#clipPath5)" font-family="'Lucida Sans Unicode'" stroke="none" xml:space="preserve">: actMsrCreator</text>
      <line clip-path="url(#clipPath6)" fill="none" x1="279" x2="279" y1="60" y2="1261" stroke-dasharray="10,10" stroke-width="1.1" />
    </g>
    <g stroke-linecap="butt" font-size="19" fill="rgb(39,76,114)" font-family="'Lucida Sans'" stroke-dasharray="10,10" stroke="rgb(39,76,114)" stroke-width="1.1">
      <rect x="270" y="90" clip-path="url(#clipPath7)" width="20" height="40" stroke="none" />
      <rect x="270" y="90" clip-path="url(#clipPath7)" fill="none" width="19" stroke-dasharray="none" height="39" stroke-width="0.1" />
    </g>
    <g stroke-width="0.1" font-size="11" font-family="'Lucida Sans Unicode'" stroke-linecap="butt">
      <text xml:space="preserve" x="291" y="103" clip-path="url(#clipPath8)" stroke="none">out01</text>
    </g>
    <g stroke-linecap="butt" font-size="19" fill="rgb(255,245,181)" font-family="'Lucida Sans'" stroke="rgb(255,245,181)" stroke-width="0.1">
      <rect x="348" y="10" clip-path="url(#clipPath9)" width="99" height="50" stroke="none" />
      <rect x="348" y="10" clip-path="url(#clipPath9)" fill="none" width="98" height="49" stroke="black" />
    </g>
    <g stroke-width="0.1" font-size="11" font-family="'Lucida Sans Unicode'" stroke-linecap="butt">
      <text xml:space="preserve" x="374" y="33" clip-path="url(#clipPath10)" stroke="none">theClock</text>
      <text xml:space="preserve" x="362" y="48" clip-path="url(#clipPath10)" stroke="none">: actActivator</text>
      <line clip-path="url(#clipPath11)" fill="none" x1="396" x2="396" y1="60" y2="1261" stroke-dasharray="10,10" stroke-width="1.1" />
    </g>
    <g stroke-linecap="butt" font-size="19" fill="rgb(39,76,114)" font-family="'Lucida Sans'" stroke-dasharray="10,10" stroke="rgb(39,76,114)" stroke-width="1.1">
      <rect x="387" y="150" clip-path="url(#clipPath12)" width="20" height="40" stroke="none" />
      <rect x="387" y="150" clip-path="url(#clipPath12)" fill="none" width="19" stroke-dasharray="none" height="39" stroke-width="0.1" />
    </g>
    <g stroke-width="0.1" font-size="11" font-family="'Lucida Sans Unicode'" stroke-linecap="butt">
      <text xml:space="preserve" x="408" y="163" clip-path="url(#clipPath13)" stroke="none">out02</text>
      <rect x="387" y="665" clip-path="url(#clipPath14)" fill="rgb(39,76,114)" width="20" height="40" stroke="none" />
      <rect x="387" y="665" clip-path="url(#clipPath14)" fill="none" width="19" height="39" stroke="rgb(39,76,114)" />
      <text xml:space="preserve" x="408" y="678" clip-path="url(#clipPath15)" stroke="none">out07</text>
      <rect x="387" y="991" clip-path="url(#clipPath16)" fill="rgb(39,76,114)" width="20" height="40" stroke="none" />
      <rect x="387" y="991" clip-path="url(#clipPath16)" fill="none" width="19" height="39" stroke="rgb(39,76,114)" />
      <text xml:space="preserve" x="408" y="1004" clip-path="url(#clipPath17)" stroke="none">out10</text>
      <rect x="387" y="1036" clip-path="url(#clipPath18)" fill="rgb(39,76,114)" width="20" height="40" stroke="none" />
      <rect x="387" y="1036" clip-path="url(#clipPath18)" fill="none" width="19" height="39" stroke="rgb(39,76,114)" />
      <text xml:space="preserve" x="408" y="1049" clip-path="url(#clipPath19)" stroke="none">out11</text>
    </g>
    <g stroke-linecap="butt" font-size="19" fill="rgb(255,245,181)" font-family="'Lucida Sans'" stroke="rgb(255,245,181)" stroke-width="0.1">
      <rect x="457" y="10" clip-path="url(#clipPath20)" width="129" height="50" stroke="none" />
      <rect x="457" y="10" clip-path="url(#clipPath20)" fill="none" width="128" height="49" stroke="black" />
    </g>
    <g stroke-width="0.1" font-size="11" font-family="'Lucida Sans Unicode'" stroke-linecap="butt">
      <text xml:space="preserve" x="513" y="33" clip-path="url(#clipPath21)" stroke="none">bill</text>
      <text xml:space="preserve" x="472" y="48" clip-path="url(#clipPath21)" stroke="none">: actAdministrator</text>
      <line clip-path="url(#clipPath22)" fill="none" x1="520" x2="520" y1="60" y2="1261" stroke-dasharray="10,10" stroke-width="1.1" />
    </g>
    <g stroke-linecap="butt" font-size="19" fill="rgb(39,76,114)" font-family="'Lucida Sans'" stroke-dasharray="10,10" stroke="rgb(39,76,114)" stroke-width="1.1">
      <rect x="511" y="210" clip-path="url(#clipPath23)" width="20" height="40" stroke="none" />
      <rect x="511" y="210" clip-path="url(#clipPath23)" fill="none" width="19" stroke-dasharray="none" height="39" stroke-width="0.1" />
    </g>
    <g stroke-width="0.1" font-size="11" font-family="'Lucida Sans Unicode'" stroke-linecap="butt">
      <text xml:space="preserve" x="532" y="223" clip-path="url(#clipPath24)" stroke="none">out03</text>
    </g>
    <g stroke-linecap="butt" font-size="19" fill="rgb(39,76,114)" font-family="'Lucida Sans'" stroke="rgb(39,76,114)" stroke-width="0.1">
      <rect x="511" y="330" clip-path="url(#clipPath25)" width="20" height="40" stroke="none" />
      <rect x="511" y="330" clip-path="url(#clipPath25)" fill="none" width="19" height="39" />
    </g>
    <g stroke-width="0.1" font-size="11" font-family="'Lucida Sans Unicode'" stroke-linecap="butt">
      <text xml:space="preserve" x="532" y="343" clip-path="url(#clipPath26)" stroke="none">out04</text>
    </g>
    <g stroke-linecap="butt" font-size="19" fill="rgb(39,76,114)" font-family="'Lucida Sans'" stroke="rgb(39,76,114)" stroke-width="0.1">
      <rect x="511" y="450" clip-path="url(#clipPath27)" width="20" height="40" stroke="none" />
      <rect x="511" y="450" clip-path="url(#clipPath27)" fill="none" width="19" height="39" />
    </g>
    <g stroke-width="0.1" font-size="11" font-family="'Lucida Sans Unicode'" stroke-linecap="butt">
      <text xml:space="preserve" x="532" y="463" clip-path="url(#clipPath28)" stroke="none">out05</text>
    </g>
    <g stroke-linecap="butt" font-size="19" fill="rgb(194,239,255)" font-family="'Lucida Sans'" stroke="rgb(194,239,255)" stroke-width="0.1">
      <rect x="511" y="259" clip-path="url(#clipPath29)" width="20" height="40" stroke="none" />
      <rect x="511" y="259" clip-path="url(#clipPath29)" fill="none" width="19" height="39" />
    </g>
    <g stroke-width="0.1" font-size="11" font-family="'Lucida Sans Unicode'" stroke-linecap="butt">
      <text xml:space="preserve" x="532" y="272" clip-path="url(#clipPath30)" stroke="none">in01</text>
    </g>
    <g stroke-linecap="butt" font-size="19" fill="rgb(194,239,255)" font-family="'Lucida Sans'" stroke="rgb(194,239,255)" stroke-width="0.1">
      <rect x="511" y="382" clip-path="url(#clipPath31)" width="20" height="40" stroke="none" />
      <rect x="511" y="382" clip-path="url(#clipPath31)" fill="none" width="19" height="39" />
    </g>
    <g stroke-width="0.1" font-size="11" font-family="'Lucida Sans Unicode'" stroke-linecap="butt">
      <text xml:space="preserve" x="532" y="395" clip-path="url(#clipPath32)" stroke="none">in02</text>
    </g>
    <g stroke-linecap="butt" font-size="19" fill="rgb(194,239,255)" font-family="'Lucida Sans'" stroke="rgb(194,239,255)" stroke-width="0.1">
      <rect x="511" y="500" clip-path="url(#clipPath33)" width="20" height="40" stroke="none" />
      <rect x="511" y="500" clip-path="url(#clipPath33)" fill="none" width="19" height="39" />
    </g>
    <g stroke-width="0.1" font-size="11" font-family="'Lucida Sans Unicode'" stroke-linecap="butt">
      <text xml:space="preserve" x="532" y="513" clip-path="url(#clipPath34)" stroke="none">in03</text>
      <rect x="511" y="570" clip-path="url(#clipPath35)" fill="rgb(39,76,114)" width="20" height="40" stroke="none" />
      <rect x="511" y="570" clip-path="url(#clipPath35)" fill="none" width="19" height="39" stroke="rgb(39,76,114)" />
      <text xml:space="preserve" x="532" y="583" clip-path="url(#clipPath36)" stroke="none">out06</text>
      <rect x="511" y="615" clip-path="url(#clipPath37)" fill="rgb(194,239,255)" width="20" height="40" stroke="none" />
      <rect x="511" y="615" clip-path="url(#clipPath37)" fill="none" width="19" height="39" stroke="rgb(194,239,255)" />
      <text xml:space="preserve" x="532" y="628" clip-path="url(#clipPath38)" stroke="none">in04</text>
      <rect x="511" y="1081" clip-path="url(#clipPath39)" fill="rgb(194,239,255)" width="20" height="40" stroke="none" />
      <rect x="511" y="1081" clip-path="url(#clipPath39)" fill="none" width="19" height="39" stroke="rgb(194,239,255)" />
      <text xml:space="preserve" x="532" y="1094" clip-path="url(#clipPath40)" stroke="none">in07</text>
    </g>
    <g stroke-linecap="butt" font-size="19" fill="rgb(255,245,181)" font-family="'Lucida Sans'" stroke="rgb(255,245,181)" stroke-width="0.1">
      <rect x="596" y="10" clip-path="url(#clipPath41)" width="134" height="50" stroke="none" />
      <rect x="596" y="10" clip-path="url(#clipPath41)" fill="none" width="133" height="49" stroke="black" />
    </g>
    <g stroke-width="0.1" font-size="11" font-family="'Lucida Sans Unicode'" stroke-linecap="butt">
      <text xml:space="preserve" x="647" y="33" clip-path="url(#clipPath42)" stroke="none">tango</text>
      <text xml:space="preserve" x="613" y="48" clip-path="url(#clipPath42)" stroke="none">: actComCompany</text>
      <line clip-path="url(#clipPath43)" fill="none" x1="662" x2="662" y1="60" y2="1261" stroke-dasharray="10,10" stroke-width="1.1" />
    </g>
    <g stroke-linecap="butt" font-size="11" fill="rgb(39,76,114)" font-family="'Lucida Sans Unicode'" stroke-dasharray="10,10" stroke="rgb(39,76,114)" stroke-width="1.1">
      <rect x="653" y="790" clip-path="url(#clipPath44)" width="20" height="40" stroke="none" />
      <rect x="653" y="790" clip-path="url(#clipPath44)" fill="none" width="19" stroke-dasharray="none" height="39" stroke-width="0.1" />
    </g>
    <g stroke-width="0.1" font-size="11" font-family="'Lucida Sans Unicode'" stroke-linecap="butt">
      <text xml:space="preserve" x="674" y="803" clip-path="url(#clipPath45)" stroke="none">out08</text>
      <rect x="653" y="880" clip-path="url(#clipPath46)" fill="rgb(39,76,114)" width="20" height="40" stroke="none" />
      <rect x="653" y="880" clip-path="url(#clipPath46)" fill="none" width="19" height="39" stroke="rgb(39,76,114)" />
      <text xml:space="preserve" x="674" y="893" clip-path="url(#clipPath47)" stroke="none">out09</text>
      <rect x="653" y="835" clip-path="url(#clipPath48)" fill="rgb(194,239,255)" width="20" height="40" stroke="none" />
      <rect x="653" y="835" clip-path="url(#clipPath48)" fill="none" width="19" height="39" stroke="rgb(194,239,255)" />
      <text xml:space="preserve" x="674" y="848" clip-path="url(#clipPath49)" stroke="none">in05</text>
      <rect x="653" y="946" clip-path="url(#clipPath50)" fill="rgb(194,239,255)" width="20" height="40" stroke="none" />
      <rect x="653" y="946" clip-path="url(#clipPath50)" fill="none" width="19" height="39" stroke="rgb(194,239,255)" />
      <text xml:space="preserve" x="674" y="959" clip-path="url(#clipPath51)" stroke="none">in06</text>
    </g>
    <g stroke-linecap="butt" font-size="19" fill="rgb(255,245,181)" font-family="'Lucida Sans'" stroke="rgb(255,245,181)" stroke-width="0.1">
      <rect x="740" y="10" clip-path="url(#clipPath52)" width="128" height="50" stroke="none" />
      <rect x="740" y="10" clip-path="url(#clipPath52)" fill="none" width="127" height="49" stroke="black" />
    </g>
    <g stroke-width="0.1" font-size="11" font-family="'Lucida Sans Unicode'" stroke-linecap="butt">
      <text xml:space="preserve" x="790" y="33" clip-path="url(#clipPath53)" stroke="none">steve</text>
      <text xml:space="preserve" x="760" y="48" clip-path="url(#clipPath53)" stroke="none">: actCoordinator</text>
      <line clip-path="url(#clipPath54)" fill="none" x1="803" x2="803" y1="60" y2="1261" stroke-dasharray="10,10" stroke-width="1.1" />
    </g>
    <g stroke-linecap="butt" font-size="11" fill="rgb(194,239,255)" font-family="'Lucida Sans Unicode'" stroke-dasharray="10,10" stroke="rgb(194,239,255)" stroke-width="1.1">
      <rect x="794" y="1126" clip-path="url(#clipPath55)" width="20" height="40" stroke="none" />
      <rect x="794" y="1126" clip-path="url(#clipPath55)" fill="none" width="19" stroke-dasharray="none" height="39" stroke-width="0.1" />
    </g>
    <g stroke-width="0.1" font-size="11" font-family="'Lucida Sans Unicode'" stroke-linecap="butt">
      <text xml:space="preserve" x="815" y="1139" clip-path="url(#clipPath56)" stroke="none">in08</text>
      <rect x="878" y="10" clip-path="url(#clipPath57)" fill="rgb(255,245,181)" width="150" height="50" stroke="none" />
      <rect x="878" y="10" clip-path="url(#clipPath57)" fill="none" width="149" height="49" />
      <text xml:space="preserve" x="941" y="33" clip-path="url(#clipPath58)" stroke="none">kitty</text>
      <text xml:space="preserve" x="926" y="48" clip-path="url(#clipPath58)" stroke="none">: actPolice</text>
      <line clip-path="url(#clipPath59)" fill="none" x1="952" x2="952" y1="60" y2="1261" stroke-dasharray="10,10" stroke-width="1.1" />
    </g>
    <g stroke-linecap="butt" font-size="11" fill="rgb(194,239,255)" font-family="'Lucida Sans Unicode'" stroke-dasharray="10,10" stroke="rgb(194,239,255)" stroke-width="1.1">
      <rect x="943" y="1171" clip-path="url(#clipPath60)" width="20" height="40" stroke="none" />
      <rect x="943" y="1171" clip-path="url(#clipPath60)" fill="none" width="19" stroke-dasharray="none" height="39" stroke-width="0.1" />
    </g>
    <g stroke-width="0.1" font-size="11" font-family="'Lucida Sans Unicode'" stroke-linecap="butt">
      <text xml:space="preserve" x="964" y="1184" clip-path="url(#clipPath61)" stroke="none">in09</text>
      <line clip-path="url(#clipPath62)" fill="none" x1="270" x2="98" y1="90" y2="90" stroke="rgb(136,136,136)" stroke-width="2.1" />
      <text x="131" y="82" clip-path="url(#clipPath63)" stroke="none" stroke-width="2.1" xml:space="preserve">oeCreateSystemAndEnvironment("4")</text>
      <line clip-path="url(#clipPath64)" fill="none" x1="105" x2="98" y1="87" y2="90" stroke="rgb(136,136,136)" stroke-width="2.1" />
      <line clip-path="url(#clipPath64)" fill="none" x1="98" x2="105" y1="90" y2="93" stroke="rgb(136,136,136)" stroke-width="2.1" />
      <line clip-path="url(#clipPath62)" fill="none" x1="387" x2="98" y1="150" y2="150" stroke="rgb(136,136,136)" stroke-width="2.1" />
      <text x="133" y="143" clip-path="url(#clipPath65)" stroke="none" stroke-width="2.1" xml:space="preserve">oeSetClock("2017:11:24 - 03:20:00")</text>
      <line clip-path="url(#clipPath66)" fill="none" x1="105" x2="98" y1="147" y2="150" stroke="rgb(136,136,136)" stroke-width="2.1" />
      <line clip-path="url(#clipPath66)" fill="none" x1="98" x2="105" y1="150" y2="153" stroke="rgb(136,136,136)" stroke-width="2.1" />
      <line clip-path="url(#clipPath62)" fill="none" x1="511" x2="98" y1="210" y2="210" stroke="rgb(136,136,136)" stroke-width="2.1" />
      <text x="126" y="200" clip-path="url(#clipPath67)" stroke="none" stroke-width="2.1" xml:space="preserve">oeLogin("icrashadmin","7WXC1359")</text>
      <line clip-path="url(#clipPath68)" fill="none" x1="105" x2="98" y1="207" y2="210" stroke="rgb(136,136,136)" stroke-width="2.1" />
      <line clip-path="url(#clipPath68)" fill="none" x1="98" x2="105" y1="210" y2="213" stroke="rgb(136,136,136)" stroke-width="2.1" />
      <line clip-path="url(#clipPath62)" fill="none" x1="511" x2="98" y1="330" y2="330" stroke="rgb(136,136,136)" stroke-width="2.1" />
      <text x="146" y="319" clip-path="url(#clipPath69)" stroke="none" stroke-width="2.1" xml:space="preserve">oeAddCoordinator("1","steve","pwdMessirExcalibur2017")</text>
      <line clip-path="url(#clipPath70)" fill="none" x1="105" x2="98" y1="327" y2="330" stroke="rgb(136,136,136)" stroke-width="2.1" />
      <line clip-path="url(#clipPath70)" fill="none" x1="98" x2="105" y1="330" y2="333" stroke="rgb(136,136,136)" stroke-width="2.1" />
      <line clip-path="url(#clipPath62)" fill="none" x1="511" x2="98" y1="450" y2="450" stroke="rgb(136,136,136)" stroke-width="2.1" />
      <text x="35" y="440" clip-path="url(#clipPath71)" stroke="none" stroke-width="2.1" xml:space="preserve">oeAddPolice("2","kitty","pwdPoliceKitty")</text>
      <line clip-path="url(#clipPath72)" fill="none" x1="105" x2="98" y1="447" y2="450" stroke="rgb(136,136,136)" stroke-width="2.1" />
      <line clip-path="url(#clipPath72)" fill="none" x1="98" x2="105" y1="450" y2="453" stroke="rgb(136,136,136)" stroke-width="2.1" />
    </g>
    <g stroke-linecap="butt" font-size="11" fill="rgb(136,136,136)" font-family="'Lucida Sans Unicode'" stroke-dasharray="5,5" stroke="rgb(136,136,136)" stroke-width="2.1">
      <line clip-path="url(#clipPath62)" fill="none" x1="511" x2="98" y1="259" y2="259" />
      <text x="136" y="250" clip-path="url(#clipPath73)" fill="black" stroke="none" xml:space="preserve">ieMessage(You are logged ! Welcome ...)</text>
      <line clip-path="url(#clipPath74)" fill="none" x1="504" x2="511" y1="262" y2="259" stroke-dasharray="none" />
      <line clip-path="url(#clipPath74)" fill="none" x1="511" x2="504" y1="259" y2="256" stroke-dasharray="none" />
      <line clip-path="url(#clipPath62)" fill="none" x1="511" x2="98" y1="382" y2="382" />
      <text x="126" y="374" clip-path="url(#clipPath75)" fill="black" stroke="none" xml:space="preserve">ieCoordinatorAddedreturned()</text>
      <line clip-path="url(#clipPath76)" fill="none" x1="504" x2="511" y1="385" y2="382" stroke-dasharray="none" />
      <line clip-path="url(#clipPath76)" fill="none" x1="511" x2="504" y1="382" y2="379" stroke-dasharray="none" />
      <line clip-path="url(#clipPath62)" fill="none" x1="511" x2="98" y1="500" y2="500" />
      <text x="191" y="492" clip-path="url(#clipPath77)" fill="black" stroke="none" xml:space="preserve">iePoliceAddedreturned()</text>
      <line clip-path="url(#clipPath78)" fill="none" x1="504" x2="511" y1="503" y2="500" stroke-dasharray="none" />
      <line clip-path="url(#clipPath78)" fill="none" x1="511" x2="504" y1="500" y2="497" stroke-dasharray="none" />
      <line clip-path="url(#clipPath62)" fill="none" x1="511" x2="98" y1="569" y2="569" stroke-dasharray="none" />
      <text x="275" y="565" clip-path="url(#clipPath79)" fill="black" stroke-dasharray="none" stroke="none" xml:space="preserve">oeLogout()</text>
      <line clip-path="url(#clipPath80)" fill="none" x1="105" x2="98" y1="566" y2="569" stroke-dasharray="none" />
      <line clip-path="url(#clipPath80)" fill="none" x1="98" x2="105" y1="569" y2="572" stroke-dasharray="none" />
      <line clip-path="url(#clipPath62)" fill="none" x1="387" x2="98" y1="664" y2="664" stroke-dasharray="none" />
      <text x="144" y="660" clip-path="url(#clipPath81)" fill="black" stroke-dasharray="none" stroke="none" xml:space="preserve">oeSetClock("2017:11:26 - 10:15:00")</text>
      <line clip-path="url(#clipPath82)" fill="none" x1="105" x2="98" y1="661" y2="664" stroke-dasharray="none" />
      <line clip-path="url(#clipPath82)" fill="none" x1="98" x2="105" y1="664" y2="667" stroke-dasharray="none" />
      <line clip-path="url(#clipPath62)" fill="none" x1="653" x2="98" y1="789" y2="789" stroke-dasharray="none" />
      <text x="58" y="785" clip-path="url(#clipPath83)" fill="black" stroke-dasharray="none" stroke="none" xml:space="preserve">oeAlert("witness","2017:11:26","10:10:16","+3524666445252","49.627675:6.159590","3 cars involved in an accident.")</text>
      <line clip-path="url(#clipPath84)" fill="none" x1="105" x2="98" y1="786" y2="789" stroke-dasharray="none" />
      <line clip-path="url(#clipPath84)" fill="none" x1="98" x2="105" y1="789" y2="792" stroke-dasharray="none" />
      <line clip-path="url(#clipPath62)" fill="none" x1="653" x2="98" y1="879" y2="879" stroke-dasharray="none" />
      <text x="24" y="875" clip-path="url(#clipPath85)" fill="black" stroke-dasharray="none" stroke="none" xml:space="preserve">oeAlert("victim","2017:11:15","10:04:16","+3524666466666","49.626665:16.159590","A car and a bicycle involved in an accident.")</text>
      <line clip-path="url(#clipPath86)" fill="none" x1="105" x2="98" y1="876" y2="879" stroke-dasharray="none" />
      <line clip-path="url(#clipPath86)" fill="none" x1="98" x2="105" y1="879" y2="882" stroke-dasharray="none" />
      <line clip-path="url(#clipPath62)" fill="none" x1="387" x2="98" y1="990" y2="990" stroke-dasharray="none" />
      <text x="144" y="986" clip-path="url(#clipPath87)" fill="black" stroke-dasharray="none" stroke="none" xml:space="preserve">oeSetClock("2017:11:26 - 10:30:00")</text>
      <line clip-path="url(#clipPath88)" fill="none" x1="105" x2="98" y1="987" y2="990" stroke-dasharray="none" />
      <line clip-path="url(#clipPath88)" fill="none" x1="98" x2="105" y1="990" y2="993" stroke-dasharray="none" />
      <line clip-path="url(#clipPath62)" fill="none" x1="387" x2="98" y1="1035" y2="1035" stroke-dasharray="none" />
      <text x="167" y="1031" clip-path="url(#clipPath89)" fill="black" stroke-dasharray="none" stroke="none" xml:space="preserve">oeSollicitateCrisisHandling()</text>
      <line clip-path="url(#clipPath90)" fill="none" x1="105" x2="98" y1="1032" y2="1035" stroke-dasharray="none" />
      <line clip-path="url(#clipPath90)" fill="none" x1="98" x2="105" y1="1035" y2="1038" stroke-dasharray="none" />
      <line clip-path="url(#clipPath62)" fill="none" x1="511" x2="98" y1="614" y2="614" />
      <text x="186" y="610" clip-path="url(#clipPath91)" fill="black" stroke="none" xml:space="preserve">ieMessage(You are logged out ! Good Bye ...)</text>
      <line clip-path="url(#clipPath92)" fill="none" x1="504" x2="511" y1="617" y2="614" stroke-dasharray="none" />
      <line clip-path="url(#clipPath92)" fill="none" x1="511" x2="504" y1="614" y2="611" stroke-dasharray="none" />
      <line clip-path="url(#clipPath62)" fill="none" x1="653" x2="98" y1="834" y2="834" />
      <text x="101" y="830" clip-path="url(#clipPath93)" fill="black" stroke="none" xml:space="preserve">ieSmsSend(+3524666445252,Your alert has been registered. We will handle it and keep you informed)</text>
      <line clip-path="url(#clipPath94)" fill="none" x1="646" x2="653" y1="837" y2="834" stroke-dasharray="none" />
      <line clip-path="url(#clipPath94)" fill="none" x1="653" x2="646" y1="834" y2="831" stroke-dasharray="none" />
      <line clip-path="url(#clipPath62)" fill="none" x1="653" x2="98" y1="945" y2="945" />
      <text x="101" y="941" clip-path="url(#clipPath95)" fill="black" stroke="none" xml:space="preserve">ieSmsSend(+3524666466666,Your alert has been registered. We will handle it and keep you informed)</text>
      <line clip-path="url(#clipPath96)" fill="none" x1="646" x2="653" y1="948" y2="945" stroke-dasharray="none" />
      <line clip-path="url(#clipPath96)" fill="none" x1="653" x2="646" y1="945" y2="942" stroke-dasharray="none" />
      <line clip-path="url(#clipPath62)" fill="none" x1="511" x2="98" y1="1080" y2="1080" />
      <text x="73" y="1076" clip-path="url(#clipPath97)" fill="black" stroke="none" xml:space="preserve">ieMessage(There are alerts pending since more than the defined delay. Please REACT !)</text>
      <line clip-path="url(#clipPath98)" fill="none" x1="504" x2="511" y1="1083" y2="1080" stroke-dasharray="none" />
      <line clip-path="url(#clipPath98)" fill="none" x1="511" x2="504" y1="1080" y2="1077" stroke-dasharray="none" />
      <line clip-path="url(#clipPath62)" fill="none" x1="794" x2="98" y1="1125" y2="1125" />
      <text x="215" y="1121" clip-path="url(#clipPath99)" fill="black" stroke="none" xml:space="preserve">ieMessage(There are alerts pending since more than the defined delay. Please REACT !)</text>
      <line clip-path="url(#clipPath100)" fill="none" x1="787" x2="794" y1="1128" y2="1125" stroke-dasharray="none" />
      <line clip-path="url(#clipPath100)" fill="none" x1="794" x2="787" y1="1125" y2="1122" stroke-dasharray="none" />
      <line clip-path="url(#clipPath62)" fill="none" x1="943" x2="98" y1="1170" y2="1170" />
      <text x="289" y="1166" clip-path="url(#clipPath101)" fill="black" stroke="none" xml:space="preserve">ieMessage(There are alerts pending since more than the defined delay. Please REACT !)</text>
      <line clip-path="url(#clipPath102)" fill="none" x1="936" x2="943" y1="1173" y2="1170" stroke-dasharray="none" />
      <line clip-path="url(#clipPath102)" fill="none" x1="943" x2="936" y1="1170" y2="1167" stroke-dasharray="none" />
    </g>
  </g>
</svg>

