<?xml version="1.0" encoding="UTF-8"?>
<svg xmlns="http://www.w3.org/2000/svg" xmlns:xlink="http://www.w3.org/1999/xlink" stroke-dasharray="none" shape-rendering="auto" font-family="'Dialog'" width="856" text-rendering="auto" fill-opacity="1" contentScriptType="text/ecmascript" color-interpolation="auto" color-rendering="auto" preserveAspectRatio="xMidYMid meet" font-size="12" viewBox="0 0 856 1010" fill="black" stroke="black" image-rendering="auto" stroke-miterlimit="10" zoomAndPan="magnify" version="1.0" stroke-linecap="square" stroke-linejoin="miter" contentStyleType="text/css" font-style="normal" height="1010" stroke-width="1" stroke-dashoffset="0" font-weight="normal" stroke-opacity="1">
  <!--Generated by the Batik Graphics2D SVG Generator-->
  <defs id="genericDefs" />
  <g>
    <defs id="defs1">
      <clipPath clipPathUnits="userSpaceOnUse" id="clipPath1">
        <path d="M216 9 L323 9 L323 61 L216 61 L216 9 Z" />
      </clipPath>
      <clipPath clipPathUnits="userSpaceOnUse" id="clipPath2">
        <path d="M216 9 L325 9 L325 61 L216 61 L216 9 Z" />
      </clipPath>
      <clipPath clipPathUnits="userSpaceOnUse" id="clipPath3">
        <path d="M263 59 L275 59 L275 1001 L263 1001 L263 59 Z" />
      </clipPath>
      <clipPath clipPathUnits="userSpaceOnUse" id="clipPath4">
        <path d="M258 89 L280 89 L280 131 L258 131 L258 89 Z" />
      </clipPath>
      <clipPath clipPathUnits="userSpaceOnUse" id="clipPath5">
        <path d="M279 89 L310 89 L310 106 L279 106 L279 89 Z" />
      </clipPath>
      <clipPath clipPathUnits="userSpaceOnUse" id="clipPath6">
        <path d="M331 9 L430 9 L430 61 L331 61 L331 9 Z" />
      </clipPath>
      <clipPath clipPathUnits="userSpaceOnUse" id="clipPath7">
        <path d="M331 9 L432 9 L432 61 L331 61 L331 9 Z" />
      </clipPath>
      <clipPath clipPathUnits="userSpaceOnUse" id="clipPath8">
        <path d="M374 59 L386 59 L386 1001 L374 1001 L374 59 Z" />
      </clipPath>
      <clipPath clipPathUnits="userSpaceOnUse" id="clipPath9">
        <path d="M369 149 L391 149 L391 191 L369 191 L369 149 Z" />
      </clipPath>
      <clipPath clipPathUnits="userSpaceOnUse" id="clipPath10">
        <path d="M390 149 L421 149 L421 166 L390 166 L390 149 Z" />
      </clipPath>
      <clipPath clipPathUnits="userSpaceOnUse" id="clipPath11">
        <path d="M369 555 L391 555 L391 597 L369 597 L369 555 Z" />
      </clipPath>
      <clipPath clipPathUnits="userSpaceOnUse" id="clipPath12">
        <path d="M390 555 L421 555 L421 572 L390 572 L390 555 Z" />
      </clipPath>
      <clipPath clipPathUnits="userSpaceOnUse" id="clipPath13">
        <path d="M369 789 L391 789 L391 831 L369 831 L369 789 Z" />
      </clipPath>
      <clipPath clipPathUnits="userSpaceOnUse" id="clipPath14">
        <path d="M390 789 L421 789 L421 806 L390 806 L390 789 Z" />
      </clipPath>
      <clipPath clipPathUnits="userSpaceOnUse" id="clipPath15">
        <path d="M438 9 L567 9 L567 61 L438 61 L438 9 Z" />
      </clipPath>
      <clipPath clipPathUnits="userSpaceOnUse" id="clipPath16">
        <path d="M438 9 L569 9 L569 61 L438 61 L438 9 Z" />
      </clipPath>
      <clipPath clipPathUnits="userSpaceOnUse" id="clipPath17">
        <path d="M496 59 L508 59 L508 1001 L496 1001 L496 59 Z" />
      </clipPath>
      <clipPath clipPathUnits="userSpaceOnUse" id="clipPath18">
        <path d="M491 209 L513 209 L513 251 L491 251 L491 209 Z" />
      </clipPath>
      <clipPath clipPathUnits="userSpaceOnUse" id="clipPath19">
        <path d="M512 209 L543 209 L543 226 L512 226 L512 209 Z" />
      </clipPath>
      <clipPath clipPathUnits="userSpaceOnUse" id="clipPath20">
        <path d="M491 329 L513 329 L513 371 L491 371 L491 329 Z" />
      </clipPath>
      <clipPath clipPathUnits="userSpaceOnUse" id="clipPath21">
        <path d="M512 329 L543 329 L543 346 L512 346 L512 329 Z" />
      </clipPath>
      <clipPath clipPathUnits="userSpaceOnUse" id="clipPath22">
        <path d="M491 449 L513 449 L513 491 L491 491 L491 449 Z" />
      </clipPath>
      <clipPath clipPathUnits="userSpaceOnUse" id="clipPath23">
        <path d="M512 449 L543 449 L543 466 L512 466 L512 449 Z" />
      </clipPath>
      <clipPath clipPathUnits="userSpaceOnUse" id="clipPath24">
        <path d="M491 255 L513 255 L513 297 L491 297 L491 255 Z" />
      </clipPath>
      <clipPath clipPathUnits="userSpaceOnUse" id="clipPath25">
        <path d="M512 255 L543 255 L543 272 L512 272 L512 255 Z" />
      </clipPath>
      <clipPath clipPathUnits="userSpaceOnUse" id="clipPath26">
        <path d="M491 374 L513 374 L513 416 L491 416 L491 374 Z" />
      </clipPath>
      <clipPath clipPathUnits="userSpaceOnUse" id="clipPath27">
        <path d="M512 374 L543 374 L543 391 L512 391 L512 374 Z" />
      </clipPath>
      <clipPath clipPathUnits="userSpaceOnUse" id="clipPath28">
        <path d="M491 499 L513 499 L513 541 L491 541 L491 499 Z" />
      </clipPath>
      <clipPath clipPathUnits="userSpaceOnUse" id="clipPath29">
        <path d="M512 499 L543 499 L543 516 L512 516 L512 499 Z" />
      </clipPath>
      <clipPath clipPathUnits="userSpaceOnUse" id="clipPath30">
        <path d="M491 849 L513 849 L513 891 L491 891 L491 849 Z" />
      </clipPath>
      <clipPath clipPathUnits="userSpaceOnUse" id="clipPath31">
        <path d="M512 849 L543 849 L543 866 L512 866 L512 849 Z" />
      </clipPath>
      <clipPath clipPathUnits="userSpaceOnUse" id="clipPath32">
        <path d="M575 9 L708 9 L708 61 L575 61 L575 9 Z" />
      </clipPath>
      <clipPath clipPathUnits="userSpaceOnUse" id="clipPath33">
        <path d="M575 9 L711 9 L711 61 L575 61 L575 9 Z" />
      </clipPath>
      <clipPath clipPathUnits="userSpaceOnUse" id="clipPath34">
        <path d="M635 59 L647 59 L647 1001 L635 1001 L635 59 Z" />
      </clipPath>
      <clipPath clipPathUnits="userSpaceOnUse" id="clipPath35">
        <path d="M630 650 L652 650 L652 692 L630 692 L630 650 Z" />
      </clipPath>
      <clipPath clipPathUnits="userSpaceOnUse" id="clipPath36">
        <path d="M651 650 L682 650 L682 667 L651 667 L651 650 Z" />
      </clipPath>
      <clipPath clipPathUnits="userSpaceOnUse" id="clipPath37">
        <path d="M630 729 L652 729 L652 771 L630 771 L630 729 Z" />
      </clipPath>
      <clipPath clipPathUnits="userSpaceOnUse" id="clipPath38">
        <path d="M651 729 L682 729 L682 746 L651 746 L651 729 Z" />
      </clipPath>
      <clipPath clipPathUnits="userSpaceOnUse" id="clipPath39">
        <path d="M716 9 L847 9 L847 61 L716 61 L716 9 Z" />
      </clipPath>
      <clipPath clipPathUnits="userSpaceOnUse" id="clipPath40">
        <path d="M716 9 L849 9 L849 61 L716 61 L716 9 Z" />
      </clipPath>
      <clipPath clipPathUnits="userSpaceOnUse" id="clipPath41">
        <path d="M775 59 L787 59 L787 1001 L775 1001 L775 59 Z" />
      </clipPath>
      <clipPath clipPathUnits="userSpaceOnUse" id="clipPath42">
        <path d="M770 909 L792 909 L792 951 L770 951 L770 909 Z" />
      </clipPath>
      <clipPath clipPathUnits="userSpaceOnUse" id="clipPath43">
        <path d="M791 909 L822 909 L822 926 L791 926 L791 909 Z" />
      </clipPath>
      <clipPath clipPathUnits="userSpaceOnUse" id="clipPath44">
        <path d="M13 9 L85 9 L85 41 L13 41 L13 9 Z" />
      </clipPath>
      <clipPath clipPathUnits="userSpaceOnUse" id="clipPath45">
        <path d="M13 9 L88 9 L88 41 L13 41 L13 9 Z" />
      </clipPath>
      <clipPath clipPathUnits="userSpaceOnUse" id="clipPath46">
        <path d="M43 39 L55 39 L55 1001 L43 1001 L43 39 Z" />
      </clipPath>
      <clipPath clipPathUnits="userSpaceOnUse" id="clipPath47">
        <path d="M-1 -1 L857 -1 L857 1011 L-1 1011 L-1 -1 Z" />
      </clipPath>
      <clipPath clipPathUnits="userSpaceOnUse" id="clipPath48">
        <path d="M85 67 L283 67 L283 84 L85 84 L85 67 Z" />
      </clipPath>
      <clipPath clipPathUnits="userSpaceOnUse" id="clipPath49">
        <path d="M47 85 L59 85 L59 96 L47 96 L47 85 Z" />
      </clipPath>
      <clipPath clipPathUnits="userSpaceOnUse" id="clipPath50">
        <path d="M87 130 L280 130 L280 147 L87 147 L87 130 Z" />
      </clipPath>
      <clipPath clipPathUnits="userSpaceOnUse" id="clipPath51">
        <path d="M47 145 L59 145 L59 156 L47 156 L47 145 Z" />
      </clipPath>
      <clipPath clipPathUnits="userSpaceOnUse" id="clipPath52">
        <path d="M79 185 L264 185 L264 202 L79 202 L79 185 Z" />
      </clipPath>
      <clipPath clipPathUnits="userSpaceOnUse" id="clipPath53">
        <path d="M47 205 L59 205 L59 216 L47 216 L47 205 Z" />
      </clipPath>
      <clipPath clipPathUnits="userSpaceOnUse" id="clipPath54">
        <path d="M104 306 L393 306 L393 323 L104 323 L104 306 Z" />
      </clipPath>
      <clipPath clipPathUnits="userSpaceOnUse" id="clipPath55">
        <path d="M47 325 L59 325 L59 336 L47 336 L47 325 Z" />
      </clipPath>
      <clipPath clipPathUnits="userSpaceOnUse" id="clipPath56">
        <path d="M68 425 L131 425 L131 442 L68 442 L68 425 Z" />
      </clipPath>
      <clipPath clipPathUnits="userSpaceOnUse" id="clipPath57">
        <path d="M47 445 L59 445 L59 456 L47 456 L47 445 Z" />
      </clipPath>
      <clipPath clipPathUnits="userSpaceOnUse" id="clipPath58">
        <path d="M83 528 L276 528 L276 545 L83 545 L83 528 Z" />
      </clipPath>
      <clipPath clipPathUnits="userSpaceOnUse" id="clipPath59">
        <path d="M47 551 L59 551 L59 562 L47 562 L47 551 Z" />
      </clipPath>
      <clipPath clipPathUnits="userSpaceOnUse" id="clipPath60">
        <path d="M23 594 L488 594 L488 662 L23 662 L23 594 Z" />
      </clipPath>
      <clipPath clipPathUnits="userSpaceOnUse" id="clipPath61">
        <path d="M47 646 L59 646 L59 657 L47 657 L47 646 Z" />
      </clipPath>
      <clipPath clipPathUnits="userSpaceOnUse" id="clipPath62">
        <path d="M82 767 L237 767 L237 784 L82 784 L82 767 Z" />
      </clipPath>
      <clipPath clipPathUnits="userSpaceOnUse" id="clipPath63">
        <path d="M47 785 L59 785 L59 796 L47 796 L47 785 Z" />
      </clipPath>
      <clipPath clipPathUnits="userSpaceOnUse" id="clipPath64">
        <path d="M88 233 L305 233 L305 250 L88 250 L88 233 Z" />
      </clipPath>
      <clipPath clipPathUnits="userSpaceOnUse" id="clipPath65">
        <path d="M483 251 L495 251 L495 262 L483 262 L483 251 Z" />
      </clipPath>
      <clipPath clipPathUnits="userSpaceOnUse" id="clipPath66">
        <path d="M71 351 L193 351 L193 368 L71 368 L71 351 Z" />
      </clipPath>
      <clipPath clipPathUnits="userSpaceOnUse" id="clipPath67">
        <path d="M483 370 L495 370 L495 381 L483 381 L483 370 Z" />
      </clipPath>
      <clipPath clipPathUnits="userSpaceOnUse" id="clipPath68">
        <path d="M94 475 L334 475 L334 492 L94 492 L94 475 Z" />
      </clipPath>
      <clipPath clipPathUnits="userSpaceOnUse" id="clipPath69">
        <path d="M483 495 L495 495 L495 506 L483 506 L483 495 Z" />
      </clipPath>
      <clipPath clipPathUnits="userSpaceOnUse" id="clipPath70">
        <path d="M133 703 L685 703 L685 720 L133 720 L133 703 Z" />
      </clipPath>
      <clipPath clipPathUnits="userSpaceOnUse" id="clipPath71">
        <path d="M622 725 L634 725 L634 736 L622 736 L622 725 Z" />
      </clipPath>
      <clipPath clipPathUnits="userSpaceOnUse" id="clipPath72">
        <path d="M123 829 L589 829 L589 846 L123 846 L123 829 Z" />
      </clipPath>
      <clipPath clipPathUnits="userSpaceOnUse" id="clipPath73">
        <path d="M483 845 L495 845 L495 856 L483 856 L483 845 Z" />
      </clipPath>
      <clipPath clipPathUnits="userSpaceOnUse" id="clipPath74">
        <path d="M122 884 L588 884 L588 901 L122 901 L122 884 Z" />
      </clipPath>
      <clipPath clipPathUnits="userSpaceOnUse" id="clipPath75">
        <path d="M762 905 L774 905 L774 916 L762 916 L762 905 Z" />
      </clipPath>
    </defs>
    <g font-size="19" fill="rgb(255,245,181)" font-family="'Lucida Sans'" stroke-linejoin="round" stroke="rgb(255,245,181)" stroke-width="0" stroke-miterlimit="0">
      <rect x="217" y="10" clip-path="url(#clipPath1)" width="105" height="50" stroke="none" />
    </g>
    <g stroke-width="0.1" font-size="19" font-family="'Lucida Sans'" stroke-linecap="butt">
      <rect x="217" y="10" clip-path="url(#clipPath1)" fill="none" width="104" height="49" />
      <text x="240" font-size="11" y="33" clip-path="url(#clipPath2)" font-family="'Lucida Sans Unicode'" stroke="none" xml:space="preserve">theCreator</text>
      <text x="228" font-size="11" y="48" clip-path="url(#clipPath2)" font-family="'Lucida Sans Unicode'" stroke="none" xml:space="preserve">: actMsrCreator</text>
      <line clip-path="url(#clipPath3)" fill="none" x1="268" x2="268" y1="60" y2="1000" stroke-dasharray="10,10" stroke-width="1.1" />
    </g>
    <g stroke-linecap="butt" font-size="19" fill="rgb(77,137,20)" font-family="'Lucida Sans'" stroke-dasharray="10,10" stroke="rgb(77,137,20)" stroke-width="1.1">
      <rect x="259" y="90" clip-path="url(#clipPath4)" width="20" height="40" stroke="none" />
      <rect x="260" y="91" clip-path="url(#clipPath4)" fill="none" width="18" stroke-dasharray="none" height="38" stroke-width="2.1" />
    </g>
    <g stroke-linecap="butt" font-size="11" fill="rgb(77,137,20)" font-family="'Lucida Sans Unicode'" stroke="rgb(77,137,20)" stroke-width="2.1">
      <text xml:space="preserve" x="280" y="103" clip-path="url(#clipPath5)" stroke="none">tsi01</text>
    </g>
    <g stroke-linecap="butt" font-size="19" fill="rgb(255,245,181)" font-family="'Lucida Sans'" stroke="rgb(255,245,181)" stroke-width="2.1">
      <rect x="332" y="10" clip-path="url(#clipPath6)" width="97" height="50" stroke="none" />
      <rect x="332" y="10" clip-path="url(#clipPath6)" fill="none" width="96" height="49" stroke="black" stroke-width="0.1" />
    </g>
    <g stroke-width="0.1" font-size="11" font-family="'Lucida Sans Unicode'" stroke-linecap="butt">
      <text xml:space="preserve" x="357" y="33" clip-path="url(#clipPath7)" stroke="none">theClock</text>
      <text xml:space="preserve" x="345" y="48" clip-path="url(#clipPath7)" stroke="none">: actActivator</text>
      <line clip-path="url(#clipPath8)" fill="none" x1="379" x2="379" y1="60" y2="1000" stroke-dasharray="10,10" stroke-width="1.1" />
    </g>
    <g stroke-linecap="butt" font-size="19" fill="rgb(77,137,20)" font-family="'Lucida Sans'" stroke-dasharray="10,10" stroke="rgb(77,137,20)" stroke-width="1.1">
      <rect x="370" y="150" clip-path="url(#clipPath9)" width="20" height="40" stroke="none" />
      <rect x="371" y="151" clip-path="url(#clipPath9)" fill="none" width="18" stroke-dasharray="none" height="38" stroke-width="2.1" />
    </g>
    <g stroke-linecap="butt" font-size="11" fill="rgb(77,137,20)" font-family="'Lucida Sans Unicode'" stroke="rgb(77,137,20)" stroke-width="2.1">
      <text xml:space="preserve" x="391" y="163" clip-path="url(#clipPath10)" stroke="none">tsi02</text>
      <rect x="370" y="556" clip-path="url(#clipPath11)" width="20" height="40" stroke="none" />
      <rect x="371" y="557" clip-path="url(#clipPath11)" fill="none" width="18" height="38" />
      <text xml:space="preserve" x="391" y="569" clip-path="url(#clipPath12)" stroke="none">tsi06</text>
      <rect x="370" y="790" clip-path="url(#clipPath13)" width="20" height="40" stroke="none" />
      <rect x="371" y="791" clip-path="url(#clipPath13)" fill="none" width="18" height="38" />
      <text xml:space="preserve" x="391" y="803" clip-path="url(#clipPath14)" stroke="none">tsi09</text>
    </g>
    <g stroke-linecap="butt" font-size="19" fill="rgb(255,245,181)" font-family="'Lucida Sans'" stroke="rgb(255,245,181)" stroke-width="2.1">
      <rect x="439" y="10" clip-path="url(#clipPath15)" width="127" height="50" stroke="none" />
      <rect x="439" y="10" clip-path="url(#clipPath15)" fill="none" width="126" height="49" stroke="black" stroke-width="0.1" />
    </g>
    <g stroke-width="0.1" font-size="11" font-family="'Lucida Sans Unicode'" stroke-linecap="butt">
      <text xml:space="preserve" x="494" y="33" clip-path="url(#clipPath16)" stroke="none">bill</text>
      <text xml:space="preserve" x="453" y="48" clip-path="url(#clipPath16)" stroke="none">: actAdministrator</text>
      <line clip-path="url(#clipPath17)" fill="none" x1="501" x2="501" y1="60" y2="1000" stroke-dasharray="10,10" stroke-width="1.1" />
    </g>
    <g stroke-linecap="butt" font-size="19" fill="rgb(77,137,20)" font-family="'Lucida Sans'" stroke-dasharray="10,10" stroke="rgb(77,137,20)" stroke-width="1.1">
      <rect x="492" y="210" clip-path="url(#clipPath18)" width="20" height="40" stroke="none" />
      <rect x="493" y="211" clip-path="url(#clipPath18)" fill="none" width="18" stroke-dasharray="none" height="38" stroke-width="2.1" />
    </g>
    <g stroke-linecap="butt" font-size="11" fill="rgb(77,137,20)" font-family="'Lucida Sans Unicode'" stroke="rgb(77,137,20)" stroke-width="2.1">
      <text xml:space="preserve" x="513" y="223" clip-path="url(#clipPath19)" stroke="none">tsi03</text>
      <rect x="492" y="330" clip-path="url(#clipPath20)" width="20" height="40" stroke="none" />
      <rect x="493" y="331" clip-path="url(#clipPath20)" fill="none" width="18" height="38" />
      <text xml:space="preserve" x="513" y="343" clip-path="url(#clipPath21)" stroke="none">tsi04</text>
      <rect x="492" y="450" clip-path="url(#clipPath22)" width="20" height="40" stroke="none" />
      <rect x="493" y="451" clip-path="url(#clipPath22)" fill="none" width="18" height="38" />
      <text xml:space="preserve" x="513" y="463" clip-path="url(#clipPath23)" stroke="none">tsi05</text>
    </g>
    <g stroke-linecap="butt" font-size="19" fill="rgb(204,242,166)" font-family="'Lucida Sans'" stroke="rgb(204,242,166)" stroke-width="2.1">
      <rect x="492" y="256" clip-path="url(#clipPath24)" width="20" height="40" stroke="none" />
      <rect x="492" y="256" clip-path="url(#clipPath24)" fill="none" width="19" height="39" stroke="rgb(209,209,209)" stroke-width="0.1" />
    </g>
    <g stroke-linecap="butt" font-size="11" fill="rgb(77,137,20)" font-family="'Lucida Sans Unicode'" stroke="rgb(77,137,20)" stroke-width="0.1">
      <text xml:space="preserve" x="513" y="269" clip-path="url(#clipPath25)" stroke="none">tsi03</text>
    </g>
    <g stroke-linecap="butt" font-size="19" fill="rgb(204,242,166)" font-family="'Lucida Sans'" stroke="rgb(204,242,166)" stroke-width="0.1">
      <rect x="492" y="375" clip-path="url(#clipPath26)" width="20" height="40" stroke="none" />
      <rect x="492" y="375" clip-path="url(#clipPath26)" fill="none" width="19" height="39" stroke="rgb(209,209,209)" />
    </g>
    <g stroke-linecap="butt" font-size="11" fill="rgb(77,137,20)" font-family="'Lucida Sans Unicode'" stroke="rgb(77,137,20)" stroke-width="0.1">
      <text xml:space="preserve" x="513" y="388" clip-path="url(#clipPath27)" stroke="none">tsi04</text>
    </g>
    <g stroke-linecap="butt" font-size="19" fill="rgb(204,242,166)" font-family="'Lucida Sans'" stroke="rgb(204,242,166)" stroke-width="0.1">
      <rect x="492" y="500" clip-path="url(#clipPath28)" width="20" height="40" stroke="none" />
      <rect x="492" y="500" clip-path="url(#clipPath28)" fill="none" width="19" height="39" stroke="rgb(209,209,209)" />
    </g>
    <g stroke-linecap="butt" font-size="11" fill="rgb(77,137,20)" font-family="'Lucida Sans Unicode'" stroke="rgb(77,137,20)" stroke-width="0.1">
      <text xml:space="preserve" x="513" y="513" clip-path="url(#clipPath29)" stroke="none">tsi05</text>
    </g>
    <g stroke-linecap="butt" font-size="19" fill="rgb(204,242,166)" font-family="'Lucida Sans'" stroke="rgb(204,242,166)" stroke-width="0.1">
      <rect x="492" y="850" clip-path="url(#clipPath30)" width="20" height="40" stroke="none" />
      <rect x="492" y="850" clip-path="url(#clipPath30)" fill="none" width="19" height="39" stroke="rgb(209,209,209)" />
    </g>
    <g stroke-linecap="butt" font-size="11" fill="rgb(77,137,20)" font-family="'Lucida Sans Unicode'" stroke="rgb(77,137,20)" stroke-width="0.1">
      <text xml:space="preserve" x="513" y="863" clip-path="url(#clipPath31)" stroke="none">tsi09</text>
    </g>
    <g stroke-linecap="butt" font-size="19" fill="rgb(255,245,181)" font-family="'Lucida Sans'" stroke="rgb(255,245,181)" stroke-width="0.1">
      <rect x="576" y="10" clip-path="url(#clipPath32)" width="131" height="50" stroke="none" />
      <rect x="576" y="10" clip-path="url(#clipPath32)" fill="none" width="130" height="49" stroke="black" />
    </g>
    <g stroke-width="0.1" font-size="11" font-family="'Lucida Sans Unicode'" stroke-linecap="butt">
      <text xml:space="preserve" x="625" y="33" clip-path="url(#clipPath33)" stroke="none">tango</text>
      <text xml:space="preserve" x="591" y="48" clip-path="url(#clipPath33)" stroke="none">: actComCompany</text>
      <line clip-path="url(#clipPath34)" fill="none" x1="640" x2="640" y1="60" y2="1000" stroke-dasharray="10,10" stroke-width="1.1" />
    </g>
    <g stroke-linecap="butt" font-size="19" fill="rgb(77,137,20)" font-family="'Lucida Sans'" stroke-dasharray="10,10" stroke="rgb(77,137,20)" stroke-width="1.1">
      <rect x="631" y="651" clip-path="url(#clipPath35)" width="20" height="40" stroke="none" />
      <rect x="632" y="652" clip-path="url(#clipPath35)" fill="none" width="18" stroke-dasharray="none" height="38" stroke-width="2.1" />
    </g>
    <g stroke-linecap="butt" font-size="11" fill="rgb(77,137,20)" font-family="'Lucida Sans Unicode'" stroke="rgb(77,137,20)" stroke-width="2.1">
      <text xml:space="preserve" x="652" y="664" clip-path="url(#clipPath36)" stroke="none">tsi07</text>
    </g>
    <g stroke-linecap="butt" font-size="19" fill="rgb(204,242,166)" font-family="'Lucida Sans'" stroke="rgb(204,242,166)" stroke-width="2.1">
      <rect x="631" y="730" clip-path="url(#clipPath37)" width="20" height="40" stroke="none" />
      <rect x="631" y="730" clip-path="url(#clipPath37)" fill="none" width="19" height="39" stroke="rgb(209,209,209)" stroke-width="0.1" />
    </g>
    <g stroke-linecap="butt" font-size="11" fill="rgb(77,137,20)" font-family="'Lucida Sans Unicode'" stroke="rgb(77,137,20)" stroke-width="0.1">
      <text xml:space="preserve" x="652" y="743" clip-path="url(#clipPath38)" stroke="none">tsi07</text>
    </g>
    <g stroke-linecap="butt" font-size="19" fill="rgb(255,245,181)" font-family="'Lucida Sans'" stroke="rgb(255,245,181)" stroke-width="0.1">
      <rect x="717" y="10" clip-path="url(#clipPath39)" width="129" height="50" stroke="none" />
      <rect x="717" y="10" clip-path="url(#clipPath39)" fill="none" width="128" height="49" stroke="black" />
    </g>
    <g stroke-width="0.1" font-size="11" font-family="'Lucida Sans Unicode'" stroke-linecap="butt">
      <text xml:space="preserve" x="767" y="33" clip-path="url(#clipPath40)" stroke="none">steve</text>
      <text xml:space="preserve" x="737" y="48" clip-path="url(#clipPath40)" stroke="none">: actCoordinator</text>
      <line clip-path="url(#clipPath41)" fill="none" x1="780" x2="780" y1="60" y2="1000" stroke-dasharray="10,10" stroke-width="1.1" />
    </g>
    <g stroke-linecap="butt" font-size="19" fill="rgb(204,242,166)" font-family="'Lucida Sans'" stroke-dasharray="10,10" stroke="rgb(204,242,166)" stroke-width="1.1">
      <rect x="771" y="910" clip-path="url(#clipPath42)" width="20" height="40" stroke="none" />
    </g>
    <g stroke-linecap="butt" font-size="19" fill="rgb(209,209,209)" font-family="'Lucida Sans'" stroke="rgb(209,209,209)" stroke-width="0.1">
      <rect x="771" y="910" clip-path="url(#clipPath42)" fill="none" width="19" height="39" />
    </g>
    <g stroke-linecap="butt" font-size="11" fill="rgb(77,137,20)" font-family="'Lucida Sans Unicode'" stroke="rgb(77,137,20)" stroke-width="0.1">
      <text xml:space="preserve" x="792" y="923" clip-path="url(#clipPath43)" stroke="none">tsi09</text>
    </g>
    <g stroke-linecap="butt" font-size="19" fill="rgb(238,201,142)" font-family="'Lucida Sans'" stroke="rgb(238,201,142)" stroke-width="0.1">
      <rect x="14" y="10" clip-path="url(#clipPath44)" width="70" height="30" stroke="none" />
      <rect x="14" y="10" clip-path="url(#clipPath44)" fill="none" width="69" height="29" stroke="black" />
    </g>
    <g stroke-width="0.1" font-size="11" font-family="'Lucida Sans Unicode'" stroke-linecap="butt">
      <text xml:space="preserve" x="29" y="30" clip-path="url(#clipPath45)" stroke="none">System</text>
      <line clip-path="url(#clipPath46)" fill="none" x1="48" x2="48" y1="40" y2="1000" stroke-dasharray="10,10" stroke-width="1.1" />
      <line clip-path="url(#clipPath47)" fill="none" x1="259" x2="49" y1="90" y2="90" stroke="rgb(136,136,136)" stroke-width="2.1" />
      <text x="86" y="81" clip-path="url(#clipPath48)" stroke="none" stroke-width="2.1" xml:space="preserve">oeCreateSystemAndEnvironment(4)</text>
      <line clip-path="url(#clipPath49)" fill="none" x1="56" x2="49" y1="87" y2="90" stroke="rgb(136,136,136)" stroke-width="2.1" />
      <line clip-path="url(#clipPath49)" fill="none" x1="49" x2="56" y1="90" y2="93" stroke="rgb(136,136,136)" stroke-width="2.1" />
      <line clip-path="url(#clipPath47)" fill="none" x1="370" x2="49" y1="150" y2="150" stroke="rgb(136,136,136)" stroke-width="2.1" />
      <text x="88" y="144" clip-path="url(#clipPath50)" stroke="none" stroke-width="2.1" xml:space="preserve">oeSetClock(2017:11:24 - 03:20:00)</text>
      <line clip-path="url(#clipPath51)" fill="none" x1="56" x2="49" y1="147" y2="150" stroke="rgb(136,136,136)" stroke-width="2.1" />
      <line clip-path="url(#clipPath51)" fill="none" x1="49" x2="56" y1="150" y2="153" stroke="rgb(136,136,136)" stroke-width="2.1" />
      <line clip-path="url(#clipPath47)" fill="none" x1="492" x2="49" y1="210" y2="210" stroke="rgb(136,136,136)" stroke-width="2.1" />
      <text x="80" y="199" clip-path="url(#clipPath52)" stroke="none" stroke-width="2.1" xml:space="preserve">oeLogin(icrashadmin,7WXC1359)</text>
      <line clip-path="url(#clipPath53)" fill="none" x1="56" x2="49" y1="207" y2="210" stroke="rgb(136,136,136)" stroke-width="2.1" />
      <line clip-path="url(#clipPath53)" fill="none" x1="49" x2="56" y1="210" y2="213" stroke="rgb(136,136,136)" stroke-width="2.1" />
      <line clip-path="url(#clipPath47)" fill="none" x1="492" x2="49" y1="330" y2="330" stroke="rgb(136,136,136)" stroke-width="2.1" />
      <text x="105" y="320" clip-path="url(#clipPath54)" stroke="none" stroke-width="2.1" xml:space="preserve">oeAddCoordinator(1,steve,pwdMessirExcalibur2017)</text>
      <line clip-path="url(#clipPath55)" fill="none" x1="56" x2="49" y1="327" y2="330" stroke="rgb(136,136,136)" stroke-width="2.1" />
      <line clip-path="url(#clipPath55)" fill="none" x1="49" x2="56" y1="330" y2="333" stroke="rgb(136,136,136)" stroke-width="2.1" />
      <line clip-path="url(#clipPath47)" fill="none" x1="492" x2="49" y1="450" y2="450" stroke="rgb(136,136,136)" stroke-width="2.1" />
      <text x="69" y="439" clip-path="url(#clipPath56)" stroke="none" stroke-width="2.1" xml:space="preserve">oeLogout()</text>
      <line clip-path="url(#clipPath57)" fill="none" x1="56" x2="49" y1="447" y2="450" stroke="rgb(136,136,136)" stroke-width="2.1" />
      <line clip-path="url(#clipPath57)" fill="none" x1="49" x2="56" y1="450" y2="453" stroke="rgb(136,136,136)" stroke-width="2.1" />
      <line clip-path="url(#clipPath47)" fill="none" x1="370" x2="49" y1="556" y2="556" stroke="rgb(136,136,136)" stroke-width="2.1" />
      <text x="84" y="542" clip-path="url(#clipPath58)" stroke="none" stroke-width="2.1" xml:space="preserve">oeSetClock(2017:11:26 - 10:15:00)</text>
      <line clip-path="url(#clipPath59)" fill="none" x1="56" x2="49" y1="553" y2="556" stroke="rgb(136,136,136)" stroke-width="2.1" />
      <line clip-path="url(#clipPath59)" fill="none" x1="49" x2="56" y1="556" y2="559" stroke="rgb(136,136,136)" stroke-width="2.1" />
      <line clip-path="url(#clipPath47)" fill="none" x1="631" x2="49" y1="651" y2="651" stroke="rgb(136,136,136)" stroke-width="2.1" />
      <text x="25" y="626" clip-path="url(#clipPath60)" stroke="none" stroke-width="2.1" xml:space="preserve">oeAlert(witness,2017:11:26,10:10:16,+3524666445252,49.627675:6.159590,3 cars </text>
      <text x="189" y="641" clip-path="url(#clipPath60)" stroke="none" stroke-width="2.1" xml:space="preserve">involved in an accident.)</text>
      <line clip-path="url(#clipPath61)" fill="none" x1="56" x2="49" y1="648" y2="651" stroke="rgb(136,136,136)" stroke-width="2.1" />
      <line clip-path="url(#clipPath61)" fill="none" x1="49" x2="56" y1="651" y2="654" stroke="rgb(136,136,136)" stroke-width="2.1" />
      <line clip-path="url(#clipPath47)" fill="none" x1="370" x2="49" y1="790" y2="790" stroke="rgb(136,136,136)" stroke-width="2.1" />
      <text x="83" y="781" clip-path="url(#clipPath62)" stroke="none" stroke-width="2.1" xml:space="preserve">oeSollicitateCrisisHandling()</text>
      <line clip-path="url(#clipPath63)" fill="none" x1="56" x2="49" y1="787" y2="790" stroke="rgb(136,136,136)" stroke-width="2.1" />
      <line clip-path="url(#clipPath63)" fill="none" x1="49" x2="56" y1="790" y2="793" stroke="rgb(136,136,136)" stroke-width="2.1" />
    </g>
    <g stroke-linecap="butt" font-size="11" fill="rgb(136,136,136)" font-family="'Lucida Sans Unicode'" stroke-dasharray="5,5" stroke="rgb(136,136,136)" stroke-width="2.1">
      <line clip-path="url(#clipPath47)" fill="none" x1="492" x2="49" y1="256" y2="256" />
      <text x="89" y="247" clip-path="url(#clipPath64)" fill="black" stroke="none" xml:space="preserve">ieMessage(You are logged ! Welcome ...)</text>
      <line clip-path="url(#clipPath65)" fill="none" x1="485" x2="492" y1="259" y2="256" stroke-dasharray="none" />
      <line clip-path="url(#clipPath65)" fill="none" x1="492" x2="485" y1="256" y2="253" stroke-dasharray="none" />
      <line clip-path="url(#clipPath47)" fill="none" x1="492" x2="49" y1="375" y2="375" />
      <text x="72" y="365" clip-path="url(#clipPath66)" fill="black" stroke="none" xml:space="preserve">ieCoordinatorAdded()</text>
      <line clip-path="url(#clipPath67)" fill="none" x1="485" x2="492" y1="378" y2="375" stroke-dasharray="none" />
      <line clip-path="url(#clipPath67)" fill="none" x1="492" x2="485" y1="375" y2="372" stroke-dasharray="none" />
      <line clip-path="url(#clipPath47)" fill="none" x1="492" x2="49" y1="500" y2="500" />
      <text x="95" y="489" clip-path="url(#clipPath68)" fill="black" stroke="none" xml:space="preserve">ieMessage(You are logged out ! Good Bye ...)</text>
      <line clip-path="url(#clipPath69)" fill="none" x1="485" x2="492" y1="503" y2="500" stroke-dasharray="none" />
      <line clip-path="url(#clipPath69)" fill="none" x1="492" x2="485" y1="500" y2="497" stroke-dasharray="none" />
      <line clip-path="url(#clipPath47)" fill="none" x1="631" x2="49" y1="730" y2="730" />
      <text x="134" y="717" clip-path="url(#clipPath70)" fill="black" stroke="none" xml:space="preserve">ieSmsSend(+3524666445252,Your alert has been registered. We will handle it and keep you informed)</text>
      <line clip-path="url(#clipPath71)" fill="none" x1="624" x2="631" y1="733" y2="730" stroke-dasharray="none" />
      <line clip-path="url(#clipPath71)" fill="none" x1="631" x2="624" y1="730" y2="727" stroke-dasharray="none" />
      <line clip-path="url(#clipPath47)" fill="none" x1="492" x2="49" y1="850" y2="850" />
      <text x="124" y="843" clip-path="url(#clipPath72)" fill="black" stroke="none" xml:space="preserve">ieMessage(There are alerts pending since more than the defined delay. Please REACT !)</text>
      <line clip-path="url(#clipPath73)" fill="none" x1="485" x2="492" y1="853" y2="850" stroke-dasharray="none" />
      <line clip-path="url(#clipPath73)" fill="none" x1="492" x2="485" y1="850" y2="847" stroke-dasharray="none" />
      <line clip-path="url(#clipPath47)" fill="none" x1="771" x2="49" y1="910" y2="910" />
      <text x="123" y="898" clip-path="url(#clipPath74)" fill="black" stroke="none" xml:space="preserve">ieMessage(There are alerts pending since more than the defined delay. Please REACT !)</text>
      <line clip-path="url(#clipPath75)" fill="none" x1="764" x2="771" y1="913" y2="910" stroke-dasharray="none" />
      <line clip-path="url(#clipPath75)" fill="none" x1="771" x2="764" y1="910" y2="907" stroke-dasharray="none" />
    </g>
  </g>
</svg>

