<?xml version="1.0" encoding="UTF-8"?>
<svg xmlns="http://www.w3.org/2000/svg" xmlns:xlink="http://www.w3.org/1999/xlink" stroke-dasharray="none" shape-rendering="auto" font-family="'Dialog'" width="786" text-rendering="auto" fill-opacity="1" contentScriptType="text/ecmascript" color-interpolation="auto" color-rendering="auto" preserveAspectRatio="xMidYMid meet" font-size="12" viewBox="0 0 786 1311" fill="black" stroke="black" image-rendering="auto" stroke-miterlimit="10" zoomAndPan="magnify" version="1.0" stroke-linecap="square" stroke-linejoin="miter" contentStyleType="text/css" font-style="normal" height="1311" stroke-width="1" stroke-dashoffset="0" font-weight="normal" stroke-opacity="1">
  <!--Generated by the Batik Graphics2D SVG Generator-->
  <defs id="genericDefs" />
  <g>
    <defs id="defs1">
      <clipPath clipPathUnits="userSpaceOnUse" id="clipPath1">
        <path d="M295 9 L414 9 L414 61 L295 61 L295 9 Z" />
      </clipPath>
      <clipPath clipPathUnits="userSpaceOnUse" id="clipPath2">
        <path d="M295 9 L416 9 L416 61 L295 61 L295 9 Z" />
      </clipPath>
      <clipPath clipPathUnits="userSpaceOnUse" id="clipPath3">
        <path d="M348 59 L360 59 L360 1302 L348 1302 L348 59 Z" />
      </clipPath>
      <clipPath clipPathUnits="userSpaceOnUse" id="clipPath4">
        <path d="M343 89 L365 89 L365 131 L343 131 L343 89 Z" />
      </clipPath>
      <clipPath clipPathUnits="userSpaceOnUse" id="clipPath5">
        <path d="M364 89 L395 89 L395 106 L364 106 L364 89 Z" />
      </clipPath>
      <clipPath clipPathUnits="userSpaceOnUse" id="clipPath6">
        <path d="M343 209 L365 209 L365 251 L343 251 L343 209 Z" />
      </clipPath>
      <clipPath clipPathUnits="userSpaceOnUse" id="clipPath7">
        <path d="M364 209 L395 209 L395 226 L364 226 L364 209 Z" />
      </clipPath>
      <clipPath clipPathUnits="userSpaceOnUse" id="clipPath8">
        <path d="M343 329 L365 329 L365 371 L343 371 L343 329 Z" />
      </clipPath>
      <clipPath clipPathUnits="userSpaceOnUse" id="clipPath9">
        <path d="M364 329 L395 329 L395 346 L364 346 L364 329 Z" />
      </clipPath>
      <clipPath clipPathUnits="userSpaceOnUse" id="clipPath10">
        <path d="M343 570 L365 570 L365 612 L343 612 L343 570 Z" />
      </clipPath>
      <clipPath clipPathUnits="userSpaceOnUse" id="clipPath11">
        <path d="M364 570 L395 570 L395 587 L364 587 L364 570 Z" />
      </clipPath>
      <clipPath clipPathUnits="userSpaceOnUse" id="clipPath12">
        <path d="M343 910 L365 910 L365 952 L343 952 L343 910 Z" />
      </clipPath>
      <clipPath clipPathUnits="userSpaceOnUse" id="clipPath13">
        <path d="M364 910 L395 910 L395 927 L364 927 L364 910 Z" />
      </clipPath>
      <clipPath clipPathUnits="userSpaceOnUse" id="clipPath14">
        <path d="M343 1030 L365 1030 L365 1072 L343 1072 L343 1030 Z" />
      </clipPath>
      <clipPath clipPathUnits="userSpaceOnUse" id="clipPath15">
        <path d="M364 1030 L395 1030 L395 1047 L364 1047 L364 1030 Z" />
      </clipPath>
      <clipPath clipPathUnits="userSpaceOnUse" id="clipPath16">
        <path d="M343 1150 L365 1150 L365 1192 L343 1192 L343 1150 Z" />
      </clipPath>
      <clipPath clipPathUnits="userSpaceOnUse" id="clipPath17">
        <path d="M364 1150 L395 1150 L395 1167 L364 1167 L364 1150 Z" />
      </clipPath>
      <clipPath clipPathUnits="userSpaceOnUse" id="clipPath18">
        <path d="M343 139 L365 139 L365 181 L343 181 L343 139 Z" />
      </clipPath>
      <clipPath clipPathUnits="userSpaceOnUse" id="clipPath19">
        <path d="M364 139 L395 139 L395 156 L364 156 L364 139 Z" />
      </clipPath>
      <clipPath clipPathUnits="userSpaceOnUse" id="clipPath20">
        <path d="M343 257 L365 257 L365 299 L343 299 L343 257 Z" />
      </clipPath>
      <clipPath clipPathUnits="userSpaceOnUse" id="clipPath21">
        <path d="M364 257 L395 257 L395 274 L364 274 L364 257 Z" />
      </clipPath>
      <clipPath clipPathUnits="userSpaceOnUse" id="clipPath22">
        <path d="M343 443 L365 443 L365 485 L343 485 L343 443 Z" />
      </clipPath>
      <clipPath clipPathUnits="userSpaceOnUse" id="clipPath23">
        <path d="M364 443 L395 443 L395 460 L364 460 L364 443 Z" />
      </clipPath>
      <clipPath clipPathUnits="userSpaceOnUse" id="clipPath24">
        <path d="M343 630 L365 630 L365 672 L343 672 L343 630 Z" />
      </clipPath>
      <clipPath clipPathUnits="userSpaceOnUse" id="clipPath25">
        <path d="M364 630 L395 630 L395 647 L364 647 L364 630 Z" />
      </clipPath>
      <clipPath clipPathUnits="userSpaceOnUse" id="clipPath26">
        <path d="M343 970 L365 970 L365 1012 L343 1012 L343 970 Z" />
      </clipPath>
      <clipPath clipPathUnits="userSpaceOnUse" id="clipPath27">
        <path d="M364 970 L395 970 L395 987 L364 987 L364 970 Z" />
      </clipPath>
      <clipPath clipPathUnits="userSpaceOnUse" id="clipPath28">
        <path d="M343 1090 L365 1090 L365 1132 L343 1132 L343 1090 Z" />
      </clipPath>
      <clipPath clipPathUnits="userSpaceOnUse" id="clipPath29">
        <path d="M364 1090 L395 1090 L395 1107 L364 1107 L364 1090 Z" />
      </clipPath>
      <clipPath clipPathUnits="userSpaceOnUse" id="clipPath30">
        <path d="M343 1210 L365 1210 L365 1252 L343 1252 L343 1210 Z" />
      </clipPath>
      <clipPath clipPathUnits="userSpaceOnUse" id="clipPath31">
        <path d="M364 1210 L395 1210 L395 1227 L364 1227 L364 1210 Z" />
      </clipPath>
      <clipPath clipPathUnits="userSpaceOnUse" id="clipPath32">
        <path d="M422 9 L552 9 L552 61 L422 61 L422 9 Z" />
      </clipPath>
      <clipPath clipPathUnits="userSpaceOnUse" id="clipPath33">
        <path d="M422 9 L555 9 L555 61 L422 61 L422 9 Z" />
      </clipPath>
      <clipPath clipPathUnits="userSpaceOnUse" id="clipPath34">
        <path d="M481 59 L493 59 L493 1302 L481 1302 L481 59 Z" />
      </clipPath>
      <clipPath clipPathUnits="userSpaceOnUse" id="clipPath35">
        <path d="M476 714 L498 714 L498 756 L476 756 L476 714 Z" />
      </clipPath>
      <clipPath clipPathUnits="userSpaceOnUse" id="clipPath36">
        <path d="M497 714 L528 714 L528 731 L497 731 L497 714 Z" />
      </clipPath>
      <clipPath clipPathUnits="userSpaceOnUse" id="clipPath37">
        <path d="M476 398 L498 398 L498 440 L476 440 L476 398 Z" />
      </clipPath>
      <clipPath clipPathUnits="userSpaceOnUse" id="clipPath38">
        <path d="M497 398 L528 398 L528 415 L497 415 L497 398 Z" />
      </clipPath>
      <clipPath clipPathUnits="userSpaceOnUse" id="clipPath39">
        <path d="M476 790 L498 790 L498 832 L476 832 L476 790 Z" />
      </clipPath>
      <clipPath clipPathUnits="userSpaceOnUse" id="clipPath40">
        <path d="M497 790 L528 790 L528 807 L497 807 L497 790 Z" />
      </clipPath>
      <clipPath clipPathUnits="userSpaceOnUse" id="clipPath41">
        <path d="M560 9 L679 9 L679 61 L560 61 L560 9 Z" />
      </clipPath>
      <clipPath clipPathUnits="userSpaceOnUse" id="clipPath42">
        <path d="M560 9 L681 9 L681 61 L560 61 L560 9 Z" />
      </clipPath>
      <clipPath clipPathUnits="userSpaceOnUse" id="clipPath43">
        <path d="M613 59 L625 59 L625 1302 L613 1302 L613 59 Z" />
      </clipPath>
      <clipPath clipPathUnits="userSpaceOnUse" id="clipPath44">
        <path d="M608 518 L630 518 L630 560 L608 560 L608 518 Z" />
      </clipPath>
      <clipPath clipPathUnits="userSpaceOnUse" id="clipPath45">
        <path d="M629 518 L660 518 L660 535 L629 535 L629 518 Z" />
      </clipPath>
      <clipPath clipPathUnits="userSpaceOnUse" id="clipPath46">
        <path d="M608 850 L630 850 L630 892 L608 892 L608 850 Z" />
      </clipPath>
      <clipPath clipPathUnits="userSpaceOnUse" id="clipPath47">
        <path d="M629 850 L660 850 L660 867 L629 867 L629 850 Z" />
      </clipPath>
      <clipPath clipPathUnits="userSpaceOnUse" id="clipPath48">
        <path d="M9 9 L81 9 L81 41 L9 41 L9 9 Z" />
      </clipPath>
      <clipPath clipPathUnits="userSpaceOnUse" id="clipPath49">
        <path d="M9 9 L84 9 L84 41 L9 41 L9 9 Z" />
      </clipPath>
      <clipPath clipPathUnits="userSpaceOnUse" id="clipPath50">
        <path d="M39 39 L51 39 L51 1302 L39 1302 L39 39 Z" />
      </clipPath>
      <clipPath clipPathUnits="userSpaceOnUse" id="clipPath51">
        <path d="M-1 -1 L787 -1 L787 1312 L-1 1312 L-1 -1 Z" />
      </clipPath>
      <clipPath clipPathUnits="userSpaceOnUse" id="clipPath52">
        <path d="M85 72 L306 72 L306 89 L85 89 L85 72 Z" />
      </clipPath>
      <clipPath clipPathUnits="userSpaceOnUse" id="clipPath53">
        <path d="M43 85 L55 85 L55 96 L43 96 L43 85 Z" />
      </clipPath>
      <clipPath clipPathUnits="userSpaceOnUse" id="clipPath54">
        <path d="M72 188 L206 188 L206 205 L72 205 L72 188 Z" />
      </clipPath>
      <clipPath clipPathUnits="userSpaceOnUse" id="clipPath55">
        <path d="M43 205 L55 205 L55 216 L43 216 L43 205 Z" />
      </clipPath>
      <clipPath clipPathUnits="userSpaceOnUse" id="clipPath56">
        <path d="M70 307 L191 307 L191 324 L70 324 L70 307 Z" />
      </clipPath>
      <clipPath clipPathUnits="userSpaceOnUse" id="clipPath57">
        <path d="M43 325 L55 325 L55 336 L43 336 L43 325 Z" />
      </clipPath>
      <clipPath clipPathUnits="userSpaceOnUse" id="clipPath58">
        <path d="M81 494 L274 494 L274 511 L81 511 L81 494 Z" />
      </clipPath>
      <clipPath clipPathUnits="userSpaceOnUse" id="clipPath59">
        <path d="M43 514 L55 514 L55 525 L43 525 L43 514 Z" />
      </clipPath>
      <clipPath clipPathUnits="userSpaceOnUse" id="clipPath60">
        <path d="M68 548 L168 548 L168 565 L68 565 L68 548 Z" />
      </clipPath>
      <clipPath clipPathUnits="userSpaceOnUse" id="clipPath61">
        <path d="M43 566 L55 566 L55 577 L43 577 L43 566 Z" />
      </clipPath>
      <clipPath clipPathUnits="userSpaceOnUse" id="clipPath62">
        <path d="M41 663 L452 663 L452 726 L41 726 L41 663 Z" />
      </clipPath>
      <clipPath clipPathUnits="userSpaceOnUse" id="clipPath63">
        <path d="M41 663 L451 663 L451 726 L41 726 L41 663 Z" />
      </clipPath>
      <clipPath clipPathUnits="userSpaceOnUse" id="clipPath64">
        <path d="M43 710 L55 710 L55 721 L43 721 L43 710 Z" />
      </clipPath>
      <clipPath clipPathUnits="userSpaceOnUse" id="clipPath65">
        <path d="M76 826 L269 826 L269 843 L76 843 L76 826 Z" />
      </clipPath>
      <clipPath clipPathUnits="userSpaceOnUse" id="clipPath66">
        <path d="M43 846 L55 846 L55 857 L43 857 L43 846 Z" />
      </clipPath>
      <clipPath clipPathUnits="userSpaceOnUse" id="clipPath67">
        <path d="M73 888 L223 888 L223 905 L73 905 L73 888 Z" />
      </clipPath>
      <clipPath clipPathUnits="userSpaceOnUse" id="clipPath68">
        <path d="M43 906 L55 906 L55 917 L43 917 L43 906 Z" />
      </clipPath>
      <clipPath clipPathUnits="userSpaceOnUse" id="clipPath69">
        <path d="M113 1011 L614 1011 L614 1028 L113 1028 L113 1011 Z" />
      </clipPath>
      <clipPath clipPathUnits="userSpaceOnUse" id="clipPath70">
        <path d="M43 1026 L55 1026 L55 1037 L43 1037 L43 1026 Z" />
      </clipPath>
      <clipPath clipPathUnits="userSpaceOnUse" id="clipPath71">
        <path d="M59 1128 L152 1128 L152 1145 L59 1145 L59 1128 Z" />
      </clipPath>
      <clipPath clipPathUnits="userSpaceOnUse" id="clipPath72">
        <path d="M43 1146 L55 1146 L55 1157 L43 1157 L43 1146 Z" />
      </clipPath>
      <clipPath clipPathUnits="userSpaceOnUse" id="clipPath73">
        <path d="M79 117 L296 117 L296 134 L79 134 L79 117 Z" />
      </clipPath>
      <clipPath clipPathUnits="userSpaceOnUse" id="clipPath74">
        <path d="M335 135 L347 135 L347 146 L335 146 L335 135 Z" />
      </clipPath>
      <clipPath clipPathUnits="userSpaceOnUse" id="clipPath75">
        <path d="M74 237 L276 237 L276 254 L74 254 L74 237 Z" />
      </clipPath>
      <clipPath clipPathUnits="userSpaceOnUse" id="clipPath76">
        <path d="M335 253 L347 253 L347 264 L335 264 L335 253 Z" />
      </clipPath>
      <clipPath clipPathUnits="userSpaceOnUse" id="clipPath77">
        <path d="M108 376 L588 376 L588 393 L108 393 L108 376 Z" />
      </clipPath>
      <clipPath clipPathUnits="userSpaceOnUse" id="clipPath78">
        <path d="M468 394 L480 394 L480 405 L468 405 L468 394 Z" />
      </clipPath>
      <clipPath clipPathUnits="userSpaceOnUse" id="clipPath79">
        <path d="M95 417 L414 417 L414 434 L95 434 L95 417 Z" />
      </clipPath>
      <clipPath clipPathUnits="userSpaceOnUse" id="clipPath80">
        <path d="M335 439 L347 439 L347 450 L335 450 L335 439 Z" />
      </clipPath>
      <clipPath clipPathUnits="userSpaceOnUse" id="clipPath81">
        <path d="M85 612 L336 612 L336 629 L85 629 L85 612 Z" />
      </clipPath>
      <clipPath clipPathUnits="userSpaceOnUse" id="clipPath82">
        <path d="M335 626 L347 626 L347 637 L335 637 L335 626 Z" />
      </clipPath>
      <clipPath clipPathUnits="userSpaceOnUse" id="clipPath83">
        <path d="M47 765 L765 765 L765 784 L47 784 L47 765 Z" />
      </clipPath>
      <clipPath clipPathUnits="userSpaceOnUse" id="clipPath84">
        <path d="M468 786 L480 786 L480 797 L468 797 L468 786 Z" />
      </clipPath>
      <clipPath clipPathUnits="userSpaceOnUse" id="clipPath85">
        <path d="M86 946 L345 946 L345 963 L86 963 L86 946 Z" />
      </clipPath>
      <clipPath clipPathUnits="userSpaceOnUse" id="clipPath86">
        <path d="M335 966 L347 966 L347 977 L335 977 L335 966 Z" />
      </clipPath>
      <clipPath clipPathUnits="userSpaceOnUse" id="clipPath87">
        <path d="M86 1069 L364 1069 L364 1086 L86 1086 L86 1069 Z" />
      </clipPath>
      <clipPath clipPathUnits="userSpaceOnUse" id="clipPath88">
        <path d="M335 1086 L347 1086 L347 1097 L335 1097 L335 1086 Z" />
      </clipPath>
      <clipPath clipPathUnits="userSpaceOnUse" id="clipPath89">
        <path d="M75 1191 L275 1191 L275 1208 L75 1208 L75 1191 Z" />
      </clipPath>
      <clipPath clipPathUnits="userSpaceOnUse" id="clipPath90">
        <path d="M335 1206 L347 1206 L347 1217 L335 1217 L335 1206 Z" />
      </clipPath>
    </defs>
    <g font-size="19" fill="rgb(255,245,181)" font-family="'Lucida Sans'" stroke-linejoin="round" stroke="rgb(255,245,181)" stroke-width="0" stroke-miterlimit="0">
      <rect x="296" y="10" clip-path="url(#clipPath1)" width="117" height="50" stroke="none" />
    </g>
    <g stroke-width="0.1" font-size="19" font-family="'Lucida Sans'" stroke-linecap="butt">
      <rect x="296" y="10" clip-path="url(#clipPath1)" fill="none" width="116" height="49" />
      <text x="340" font-size="11" y="33" clip-path="url(#clipPath2)" font-family="'Lucida Sans Unicode'" stroke="none" xml:space="preserve">steve</text>
      <text x="310" font-size="11" y="48" clip-path="url(#clipPath2)" font-family="'Lucida Sans Unicode'" stroke="none" xml:space="preserve">: actCoordinator</text>
      <line clip-path="url(#clipPath3)" fill="none" x1="353" x2="353" y1="60" y2="1301" stroke-dasharray="10,10" stroke-width="1.1" />
    </g>
    <g stroke-linecap="butt" font-size="19" fill="rgb(77,137,20)" font-family="'Lucida Sans'" stroke-dasharray="10,10" stroke="rgb(77,137,20)" stroke-width="1.1">
      <rect x="344" y="90" clip-path="url(#clipPath4)" width="20" height="40" stroke="none" />
      <rect x="345" y="91" clip-path="url(#clipPath4)" fill="none" width="18" stroke-dasharray="none" height="38" stroke-width="2.1" />
    </g>
    <g stroke-linecap="butt" font-size="11" fill="rgb(77,137,20)" font-family="'Lucida Sans Unicode'" stroke="rgb(77,137,20)" stroke-width="2.1">
      <text xml:space="preserve" x="365" y="103" clip-path="url(#clipPath5)" stroke="none">tsi10</text>
      <rect x="344" y="210" clip-path="url(#clipPath6)" width="20" height="40" stroke="none" />
      <rect x="345" y="211" clip-path="url(#clipPath6)" fill="none" width="18" height="38" />
      <text xml:space="preserve" x="365" y="223" clip-path="url(#clipPath7)" stroke="none">tsi11</text>
      <rect x="344" y="330" clip-path="url(#clipPath8)" width="20" height="40" stroke="none" />
      <rect x="345" y="331" clip-path="url(#clipPath8)" fill="none" width="18" height="38" />
      <text xml:space="preserve" x="365" y="343" clip-path="url(#clipPath9)" stroke="none">tsi12</text>
      <rect x="344" y="571" clip-path="url(#clipPath10)" width="20" height="40" stroke="none" />
      <rect x="345" y="572" clip-path="url(#clipPath10)" fill="none" width="18" height="38" />
      <text xml:space="preserve" x="365" y="584" clip-path="url(#clipPath11)" stroke="none">tsi14</text>
      <rect x="344" y="911" clip-path="url(#clipPath12)" width="20" height="40" stroke="none" />
      <rect x="345" y="912" clip-path="url(#clipPath12)" fill="none" width="18" height="38" />
      <text xml:space="preserve" x="365" y="924" clip-path="url(#clipPath13)" stroke="none">tsi17</text>
      <rect x="344" y="1031" clip-path="url(#clipPath14)" width="20" height="40" stroke="none" />
      <rect x="345" y="1032" clip-path="url(#clipPath14)" fill="none" width="18" height="38" />
      <text xml:space="preserve" x="365" y="1044" clip-path="url(#clipPath15)" stroke="none">tsi18</text>
      <rect x="344" y="1151" clip-path="url(#clipPath16)" width="20" height="40" stroke="none" />
      <rect x="345" y="1152" clip-path="url(#clipPath16)" fill="none" width="18" height="38" />
      <text xml:space="preserve" x="365" y="1164" clip-path="url(#clipPath17)" stroke="none">tsi19</text>
    </g>
    <g stroke-linecap="butt" font-size="19" fill="rgb(204,242,166)" font-family="'Lucida Sans'" stroke="rgb(204,242,166)" stroke-width="2.1">
      <rect x="344" y="140" clip-path="url(#clipPath18)" width="20" height="40" stroke="none" />
      <rect x="344" y="140" clip-path="url(#clipPath18)" fill="none" width="19" height="39" stroke="rgb(209,209,209)" stroke-width="0.1" />
    </g>
    <g stroke-linecap="butt" font-size="11" fill="rgb(77,137,20)" font-family="'Lucida Sans Unicode'" stroke="rgb(77,137,20)" stroke-width="0.1">
      <text xml:space="preserve" x="365" y="153" clip-path="url(#clipPath19)" stroke="none">tsi10</text>
    </g>
    <g stroke-linecap="butt" font-size="19" fill="rgb(204,242,166)" font-family="'Lucida Sans'" stroke="rgb(204,242,166)" stroke-width="0.1">
      <rect x="344" y="258" clip-path="url(#clipPath20)" width="20" height="40" stroke="none" />
      <rect x="344" y="258" clip-path="url(#clipPath20)" fill="none" width="19" height="39" stroke="rgb(209,209,209)" />
    </g>
    <g stroke-linecap="butt" font-size="11" fill="rgb(77,137,20)" font-family="'Lucida Sans Unicode'" stroke="rgb(77,137,20)" stroke-width="0.1">
      <text xml:space="preserve" x="365" y="271" clip-path="url(#clipPath21)" stroke="none">tsi11</text>
    </g>
    <g stroke-linecap="butt" font-size="19" fill="rgb(204,242,166)" font-family="'Lucida Sans'" stroke="rgb(204,242,166)" stroke-width="0.1">
      <rect x="344" y="444" clip-path="url(#clipPath22)" width="20" height="40" stroke="none" />
      <rect x="344" y="444" clip-path="url(#clipPath22)" fill="none" width="19" height="39" stroke="rgb(209,209,209)" />
    </g>
    <g stroke-linecap="butt" font-size="11" fill="rgb(77,137,20)" font-family="'Lucida Sans Unicode'" stroke="rgb(77,137,20)" stroke-width="0.1">
      <text xml:space="preserve" x="365" y="457" clip-path="url(#clipPath23)" stroke="none">tsi12</text>
    </g>
    <g stroke-linecap="butt" font-size="19" fill="rgb(204,242,166)" font-family="'Lucida Sans'" stroke="rgb(204,242,166)" stroke-width="0.1">
      <rect x="344" y="631" clip-path="url(#clipPath24)" width="20" height="40" stroke="none" />
      <rect x="344" y="631" clip-path="url(#clipPath24)" fill="none" width="19" height="39" stroke="rgb(209,209,209)" />
    </g>
    <g stroke-linecap="butt" font-size="11" fill="rgb(77,137,20)" font-family="'Lucida Sans Unicode'" stroke="rgb(77,137,20)" stroke-width="0.1">
      <text xml:space="preserve" x="365" y="644" clip-path="url(#clipPath25)" stroke="none">tsi14</text>
    </g>
    <g stroke-linecap="butt" font-size="19" fill="rgb(204,242,166)" font-family="'Lucida Sans'" stroke="rgb(204,242,166)" stroke-width="0.1">
      <rect x="344" y="971" clip-path="url(#clipPath26)" width="20" height="40" stroke="none" />
      <rect x="344" y="971" clip-path="url(#clipPath26)" fill="none" width="19" height="39" stroke="rgb(209,209,209)" />
    </g>
    <g stroke-linecap="butt" font-size="11" fill="rgb(77,137,20)" font-family="'Lucida Sans Unicode'" stroke="rgb(77,137,20)" stroke-width="0.1">
      <text xml:space="preserve" x="365" y="984" clip-path="url(#clipPath27)" stroke="none">tsi17</text>
    </g>
    <g stroke-linecap="butt" font-size="19" fill="rgb(204,242,166)" font-family="'Lucida Sans'" stroke="rgb(204,242,166)" stroke-width="0.1">
      <rect x="344" y="1091" clip-path="url(#clipPath28)" width="20" height="40" stroke="none" />
      <rect x="344" y="1091" clip-path="url(#clipPath28)" fill="none" width="19" height="39" stroke="rgb(209,209,209)" />
    </g>
    <g stroke-linecap="butt" font-size="11" fill="rgb(77,137,20)" font-family="'Lucida Sans Unicode'" stroke="rgb(77,137,20)" stroke-width="0.1">
      <text xml:space="preserve" x="365" y="1104" clip-path="url(#clipPath29)" stroke="none">tsi18</text>
    </g>
    <g stroke-linecap="butt" font-size="19" fill="rgb(204,242,166)" font-family="'Lucida Sans'" stroke="rgb(204,242,166)" stroke-width="0.1">
      <rect x="344" y="1211" clip-path="url(#clipPath30)" width="20" height="40" stroke="none" />
      <rect x="344" y="1211" clip-path="url(#clipPath30)" fill="none" width="19" height="39" stroke="rgb(209,209,209)" />
    </g>
    <g stroke-linecap="butt" font-size="11" fill="rgb(77,137,20)" font-family="'Lucida Sans Unicode'" stroke="rgb(77,137,20)" stroke-width="0.1">
      <text xml:space="preserve" x="365" y="1224" clip-path="url(#clipPath31)" stroke="none">tsi19</text>
    </g>
    <g stroke-linecap="butt" font-size="19" fill="rgb(255,245,181)" font-family="'Lucida Sans'" stroke="rgb(255,245,181)" stroke-width="0.1">
      <rect x="423" y="10" clip-path="url(#clipPath32)" width="128" height="50" stroke="none" />
      <rect x="423" y="10" clip-path="url(#clipPath32)" fill="none" width="127" height="49" stroke="black" />
    </g>
    <g stroke-width="0.1" font-size="11" font-family="'Lucida Sans Unicode'" stroke-linecap="butt">
      <text xml:space="preserve" x="471" y="33" clip-path="url(#clipPath33)" stroke="none">tango</text>
      <text xml:space="preserve" x="437" y="48" clip-path="url(#clipPath33)" stroke="none">: actComCompany</text>
      <line clip-path="url(#clipPath34)" fill="none" x1="486" x2="486" y1="60" y2="1301" stroke-dasharray="10,10" stroke-width="1.1" />
    </g>
    <g stroke-linecap="butt" font-size="19" fill="rgb(77,137,20)" font-family="'Lucida Sans'" stroke-dasharray="10,10" stroke="rgb(77,137,20)" stroke-width="1.1">
      <rect x="477" y="715" clip-path="url(#clipPath35)" width="20" height="40" stroke="none" />
      <rect x="478" y="716" clip-path="url(#clipPath35)" fill="none" width="18" stroke-dasharray="none" height="38" stroke-width="2.1" />
    </g>
    <g stroke-linecap="butt" font-size="11" fill="rgb(77,137,20)" font-family="'Lucida Sans Unicode'" stroke="rgb(77,137,20)" stroke-width="2.1">
      <text xml:space="preserve" x="498" y="728" clip-path="url(#clipPath36)" stroke="none">tsi15</text>
    </g>
    <g stroke-linecap="butt" font-size="19" fill="rgb(204,242,166)" font-family="'Lucida Sans'" stroke="rgb(204,242,166)" stroke-width="2.1">
      <rect x="477" y="399" clip-path="url(#clipPath37)" width="20" height="40" stroke="none" />
      <rect x="477" y="399" clip-path="url(#clipPath37)" fill="none" width="19" height="39" stroke="rgb(209,209,209)" stroke-width="0.1" />
    </g>
    <g stroke-linecap="butt" font-size="11" fill="rgb(77,137,20)" font-family="'Lucida Sans Unicode'" stroke="rgb(77,137,20)" stroke-width="0.1">
      <text xml:space="preserve" x="498" y="412" clip-path="url(#clipPath38)" stroke="none">tsi12</text>
    </g>
    <g stroke-linecap="butt" font-size="19" fill="rgb(204,242,166)" font-family="'Lucida Sans'" stroke="rgb(204,242,166)" stroke-width="0.1">
      <rect x="477" y="791" clip-path="url(#clipPath39)" width="20" height="40" stroke="none" />
      <rect x="477" y="791" clip-path="url(#clipPath39)" fill="none" width="19" height="39" stroke="rgb(209,209,209)" />
    </g>
    <g stroke-linecap="butt" font-size="11" fill="rgb(77,137,20)" font-family="'Lucida Sans Unicode'" stroke="rgb(77,137,20)" stroke-width="0.1">
      <text xml:space="preserve" x="498" y="804" clip-path="url(#clipPath40)" stroke="none">tsi15</text>
    </g>
    <g stroke-linecap="butt" font-size="19" fill="rgb(255,245,181)" font-family="'Lucida Sans'" stroke="rgb(255,245,181)" stroke-width="0.1">
      <rect x="561" y="10" clip-path="url(#clipPath41)" width="117" height="50" stroke="none" />
      <rect x="561" y="10" clip-path="url(#clipPath41)" fill="none" width="116" height="49" stroke="black" />
    </g>
    <g stroke-width="0.1" font-size="11" font-family="'Lucida Sans Unicode'" stroke-linecap="butt">
      <text xml:space="preserve" x="596" y="33" clip-path="url(#clipPath42)" stroke="none">theClock</text>
      <text xml:space="preserve" x="584" y="48" clip-path="url(#clipPath42)" stroke="none">: actActivator</text>
      <line clip-path="url(#clipPath43)" fill="none" x1="618" x2="618" y1="60" y2="1301" stroke-dasharray="10,10" stroke-width="1.1" />
    </g>
    <g stroke-linecap="butt" font-size="19" fill="rgb(77,137,20)" font-family="'Lucida Sans'" stroke-dasharray="10,10" stroke="rgb(77,137,20)" stroke-width="1.1">
      <rect x="609" y="519" clip-path="url(#clipPath44)" width="20" height="40" stroke="none" />
      <rect x="610" y="520" clip-path="url(#clipPath44)" fill="none" width="18" stroke-dasharray="none" height="38" stroke-width="2.1" />
    </g>
    <g stroke-linecap="butt" font-size="11" fill="rgb(77,137,20)" font-family="'Lucida Sans Unicode'" stroke="rgb(77,137,20)" stroke-width="2.1">
      <text xml:space="preserve" x="630" y="532" clip-path="url(#clipPath45)" stroke="none">tsi13</text>
      <rect x="609" y="851" clip-path="url(#clipPath46)" width="20" height="40" stroke="none" />
      <rect x="610" y="852" clip-path="url(#clipPath46)" fill="none" width="18" height="38" />
      <text xml:space="preserve" x="630" y="864" clip-path="url(#clipPath47)" stroke="none">tsi16</text>
    </g>
    <g stroke-linecap="butt" font-size="19" fill="rgb(238,201,142)" font-family="'Lucida Sans'" stroke="rgb(238,201,142)" stroke-width="2.1">
      <rect x="10" y="10" clip-path="url(#clipPath48)" width="70" height="30" stroke="none" />
      <rect x="10" y="10" clip-path="url(#clipPath48)" fill="none" width="69" height="29" stroke="black" stroke-width="0.1" />
    </g>
    <g stroke-width="0.1" font-size="11" font-family="'Lucida Sans Unicode'" stroke-linecap="butt">
      <text xml:space="preserve" x="25" y="30" clip-path="url(#clipPath49)" stroke="none">System</text>
      <line clip-path="url(#clipPath50)" fill="none" x1="44" x2="44" y1="40" y2="1301" stroke-dasharray="10,10" stroke-width="1.1" />
      <line clip-path="url(#clipPath51)" fill="none" x1="344" x2="45" y1="90" y2="90" stroke="rgb(136,136,136)" stroke-width="2.1" />
      <text x="86" y="86" clip-path="url(#clipPath52)" stroke="none" stroke-width="2.1" xml:space="preserve">oeLogin(steve,pwdMessirExcalibur2017)</text>
      <line clip-path="url(#clipPath53)" fill="none" x1="52" x2="45" y1="87" y2="90" stroke="rgb(136,136,136)" stroke-width="2.1" />
      <line clip-path="url(#clipPath53)" fill="none" x1="45" x2="52" y1="90" y2="93" stroke="rgb(136,136,136)" stroke-width="2.1" />
      <line clip-path="url(#clipPath51)" fill="none" x1="344" x2="45" y1="210" y2="210" stroke="rgb(136,136,136)" stroke-width="2.1" />
      <text x="73" y="202" clip-path="url(#clipPath54)" stroke="none" stroke-width="2.1" xml:space="preserve">oeGetCrisisSet(pending)</text>
      <line clip-path="url(#clipPath55)" fill="none" x1="52" x2="45" y1="207" y2="210" stroke="rgb(136,136,136)" stroke-width="2.1" />
      <line clip-path="url(#clipPath55)" fill="none" x1="45" x2="52" y1="210" y2="213" stroke="rgb(136,136,136)" stroke-width="2.1" />
      <line clip-path="url(#clipPath51)" fill="none" x1="344" x2="45" y1="330" y2="330" stroke="rgb(136,136,136)" stroke-width="2.1" />
      <text x="71" y="321" clip-path="url(#clipPath56)" stroke="none" stroke-width="2.1" xml:space="preserve">oeSetCrisisHandler(1)</text>
      <line clip-path="url(#clipPath57)" fill="none" x1="52" x2="45" y1="327" y2="330" stroke="rgb(136,136,136)" stroke-width="2.1" />
      <line clip-path="url(#clipPath57)" fill="none" x1="45" x2="52" y1="330" y2="333" stroke="rgb(136,136,136)" stroke-width="2.1" />
      <line clip-path="url(#clipPath51)" fill="none" x1="609" x2="45" y1="519" y2="519" stroke="rgb(136,136,136)" stroke-width="2.1" />
      <text x="82" y="508" clip-path="url(#clipPath58)" stroke="none" stroke-width="2.1" xml:space="preserve">oeSetClock(2017:11:26 - 10:45:00)</text>
      <line clip-path="url(#clipPath59)" fill="none" x1="52" x2="45" y1="516" y2="519" stroke="rgb(136,136,136)" stroke-width="2.1" />
      <line clip-path="url(#clipPath59)" fill="none" x1="45" x2="52" y1="519" y2="522" stroke="rgb(136,136,136)" stroke-width="2.1" />
      <line clip-path="url(#clipPath51)" fill="none" x1="344" x2="45" y1="571" y2="571" stroke="rgb(136,136,136)" stroke-width="2.1" />
      <text x="69" y="562" clip-path="url(#clipPath60)" stroke="none" stroke-width="2.1" xml:space="preserve">oeValidateAlert(1)</text>
      <line clip-path="url(#clipPath61)" fill="none" x1="52" x2="45" y1="568" y2="571" stroke="rgb(136,136,136)" stroke-width="2.1" />
      <line clip-path="url(#clipPath61)" fill="none" x1="45" x2="52" y1="571" y2="574" stroke="rgb(136,136,136)" stroke-width="2.1" />
      <line clip-path="url(#clipPath51)" fill="none" x1="477" x2="45" y1="715" y2="715" stroke="rgb(136,136,136)" stroke-width="2.1" />
      <text x="61" y="692" clip-path="url(#clipPath62)" stroke="none" stroke-width="2.1" xml:space="preserve">oeAlert(witness,2017:11:26,10:20:00,+3524666445000,49.627095:</text>
      <text x="143" y="707" clip-path="url(#clipPath63)" stroke="none" stroke-width="2.1" xml:space="preserve">6.160251,A car crash just happened.)</text>
      <line clip-path="url(#clipPath64)" fill="none" x1="52" x2="45" y1="712" y2="715" stroke="rgb(136,136,136)" stroke-width="2.1" />
      <line clip-path="url(#clipPath64)" fill="none" x1="45" x2="52" y1="715" y2="718" stroke="rgb(136,136,136)" stroke-width="2.1" />
      <line clip-path="url(#clipPath51)" fill="none" x1="609" x2="45" y1="851" y2="851" stroke="rgb(136,136,136)" stroke-width="2.1" />
      <text x="77" y="840" clip-path="url(#clipPath65)" stroke="none" stroke-width="2.1" xml:space="preserve">oeSetClock(2017:11:26 - 12:45:00)</text>
      <line clip-path="url(#clipPath66)" fill="none" x1="52" x2="45" y1="848" y2="851" stroke="rgb(136,136,136)" stroke-width="2.1" />
      <line clip-path="url(#clipPath66)" fill="none" x1="45" x2="52" y1="851" y2="854" stroke="rgb(136,136,136)" stroke-width="2.1" />
      <line clip-path="url(#clipPath51)" fill="none" x1="344" x2="45" y1="911" y2="911" stroke="rgb(136,136,136)" stroke-width="2.1" />
      <text x="74" y="902" clip-path="url(#clipPath67)" stroke="none" stroke-width="2.1" xml:space="preserve">oeSetCrisisStatus(1,solved)</text>
      <line clip-path="url(#clipPath68)" fill="none" x1="52" x2="45" y1="908" y2="911" stroke="rgb(136,136,136)" stroke-width="2.1" />
      <line clip-path="url(#clipPath68)" fill="none" x1="45" x2="52" y1="911" y2="914" stroke="rgb(136,136,136)" stroke-width="2.1" />
      <line clip-path="url(#clipPath51)" fill="none" x1="344" x2="45" y1="1031" y2="1031" stroke="rgb(136,136,136)" stroke-width="2.1" />
      <text x="114" y="1025" clip-path="url(#clipPath69)" stroke="none" stroke-width="2.1" xml:space="preserve">oeReportOnCrisis(1,3 victims sent to hospital, 2 cars evacuated and 4 rescue unit mobilized)</text>
      <line clip-path="url(#clipPath70)" fill="none" x1="52" x2="45" y1="1028" y2="1031" stroke="rgb(136,136,136)" stroke-width="2.1" />
      <line clip-path="url(#clipPath70)" fill="none" x1="45" x2="52" y1="1031" y2="1034" stroke="rgb(136,136,136)" stroke-width="2.1" />
      <line clip-path="url(#clipPath51)" fill="none" x1="344" x2="45" y1="1151" y2="1151" stroke="rgb(136,136,136)" stroke-width="2.1" />
      <text x="60" y="1142" clip-path="url(#clipPath71)" stroke="none" stroke-width="2.1" xml:space="preserve">oeCloseCrisis(1)</text>
      <line clip-path="url(#clipPath72)" fill="none" x1="52" x2="45" y1="1148" y2="1151" stroke="rgb(136,136,136)" stroke-width="2.1" />
      <line clip-path="url(#clipPath72)" fill="none" x1="45" x2="52" y1="1151" y2="1154" stroke="rgb(136,136,136)" stroke-width="2.1" />
    </g>
    <g stroke-linecap="butt" font-size="11" fill="rgb(136,136,136)" font-family="'Lucida Sans Unicode'" stroke-dasharray="5,5" stroke="rgb(136,136,136)" stroke-width="2.1">
      <line clip-path="url(#clipPath51)" fill="none" x1="344" x2="45" y1="140" y2="140" />
      <text x="80" y="131" clip-path="url(#clipPath73)" fill="black" stroke="none" xml:space="preserve">ieMessage(You are logged ! Welcome ...)</text>
      <line clip-path="url(#clipPath74)" fill="none" x1="337" x2="344" y1="143" y2="140" stroke-dasharray="none" />
      <line clip-path="url(#clipPath74)" fill="none" x1="344" x2="337" y1="140" y2="137" stroke-dasharray="none" />
      <line clip-path="url(#clipPath51)" fill="none" x1="344" x2="45" y1="258" y2="258" />
      <text x="75" y="251" clip-path="url(#clipPath75)" fill="black" stroke="none" xml:space="preserve">ieSendACrisis(crisis with ID 1 details)</text>
      <line clip-path="url(#clipPath76)" fill="none" x1="337" x2="344" y1="261" y2="258" stroke-dasharray="none" />
      <line clip-path="url(#clipPath76)" fill="none" x1="344" x2="337" y1="258" y2="255" stroke-dasharray="none" />
      <line clip-path="url(#clipPath51)" fill="none" x1="477" x2="45" y1="399" y2="399" />
      <text x="109" y="390" clip-path="url(#clipPath77)" fill="black" stroke="none" xml:space="preserve">ieSmsSend(+3524666445252,The handling of your alert by our services is in progress !)</text>
      <line clip-path="url(#clipPath78)" fill="none" x1="470" x2="477" y1="402" y2="399" stroke-dasharray="none" />
      <line clip-path="url(#clipPath78)" fill="none" x1="477" x2="470" y1="399" y2="396" stroke-dasharray="none" />
      <line clip-path="url(#clipPath51)" fill="none" x1="344" x2="45" y1="444" y2="444" />
      <text x="96" y="431" clip-path="url(#clipPath79)" fill="black" stroke="none" xml:space="preserve">ieMessage(You are now considered as handling the crisis !)</text>
      <line clip-path="url(#clipPath80)" fill="none" x1="337" x2="344" y1="447" y2="444" stroke-dasharray="none" />
      <line clip-path="url(#clipPath80)" fill="none" x1="344" x2="337" y1="444" y2="441" stroke-dasharray="none" />
      <line clip-path="url(#clipPath51)" fill="none" x1="344" x2="45" y1="631" y2="631" />
      <text x="86" y="626" clip-path="url(#clipPath81)" fill="black" stroke="none" xml:space="preserve">ieMessage(The Alert is now declared as valid !)</text>
      <line clip-path="url(#clipPath82)" fill="none" x1="337" x2="344" y1="634" y2="631" stroke-dasharray="none" />
      <line clip-path="url(#clipPath82)" fill="none" x1="344" x2="337" y1="631" y2="628" stroke-dasharray="none" />
      <line clip-path="url(#clipPath51)" fill="none" x1="477" x2="45" y1="791" y2="791" />
      <text x="131" y="780" clip-path="url(#clipPath83)" fill="black" stroke="none" xml:space="preserve">ieSmsSend(+3524666445000,Your alert has been registered. We will handle it and keep you informed)</text>
      <line clip-path="url(#clipPath84)" fill="none" x1="470" x2="477" y1="794" y2="791" stroke-dasharray="none" />
      <line clip-path="url(#clipPath84)" fill="none" x1="477" x2="470" y1="791" y2="788" stroke-dasharray="none" />
      <line clip-path="url(#clipPath51)" fill="none" x1="344" x2="45" y1="971" y2="971" />
      <text x="87" y="960" clip-path="url(#clipPath85)" fill="black" stroke="none" xml:space="preserve">ieMessage(The crisis status has been updated !)</text>
      <line clip-path="url(#clipPath86)" fill="none" x1="337" x2="344" y1="974" y2="971" stroke-dasharray="none" />
      <line clip-path="url(#clipPath86)" fill="none" x1="344" x2="337" y1="971" y2="968" stroke-dasharray="none" />
      <line clip-path="url(#clipPath51)" fill="none" x1="344" x2="45" y1="1091" y2="1091" />
      <text x="87" y="1083" clip-path="url(#clipPath87)" fill="black" stroke="none" xml:space="preserve">ieMessage(The crisis comment has been updated !)</text>
      <line clip-path="url(#clipPath88)" fill="none" x1="337" x2="344" y1="1094" y2="1091" stroke-dasharray="none" />
      <line clip-path="url(#clipPath88)" fill="none" x1="344" x2="337" y1="1091" y2="1088" stroke-dasharray="none" />
      <line clip-path="url(#clipPath51)" fill="none" x1="344" x2="45" y1="1211" y2="1211" />
      <text x="76" y="1205" clip-path="url(#clipPath89)" fill="black" stroke="none" xml:space="preserve">ieMessage(The crisis is now closed !)</text>
      <line clip-path="url(#clipPath90)" fill="none" x1="337" x2="344" y1="1214" y2="1211" stroke-dasharray="none" />
      <line clip-path="url(#clipPath90)" fill="none" x1="344" x2="337" y1="1211" y2="1208" stroke-dasharray="none" />
    </g>
  </g>
</svg>

